<?xml version="1.0" encoding="utf-8"?>
<!-- Generator: Adobe Illustrator 17.0.0, SVG Export Plug-In . SVG Version: 6.00 Build 0)  -->
<!DOCTYPE svg PUBLIC "-//W3C//DTD SVG 1.1//EN" "http://www.w3.org/Graphics/SVG/1.1/DTD/svg11.dtd">
<svg version="1.1" id="Layer_1" xmlns="http://www.w3.org/2000/svg" xmlns:xlink="http://www.w3.org/1999/xlink" x="0px" y="0px"
	 width="100px" height="100px" viewBox="0 0 100 100" enable-background="new 0 0 100 100" xml:space="preserve">
<g>
	<g>
		<path fill="#373636" d="M49.779,99.261c-27.111,0-49.167-22.056-49.167-49.167c0-27.111,22.056-49.167,49.167-49.167
			s49.167,22.056,49.167,49.167C98.946,77.206,76.89,99.261,49.779,99.261z M49.779,2.54c-26.222,0-47.555,21.333-47.555,47.555
			s21.333,47.555,47.555,47.555s47.555-21.333,47.555-47.555S76.001,2.54,49.779,2.54z"/>
	</g>
	<g>
		<path fill="#373636" d="M49.779,99.261c-27.111,0-49.167-22.056-49.167-49.167c0-27.111,22.056-49.167,49.167-49.167
			s49.167,22.056,49.167,49.167C98.946,77.206,76.89,99.261,49.779,99.261z M49.779,2.54c-26.222,0-47.555,21.333-47.555,47.555
			s21.333,47.555,47.555,47.555s47.555-21.333,47.555-47.555S76.001,2.54,49.779,2.54z"/>
	</g>
	<g>
		<g>
			<path fill="#373636" d="M15.295,84.803c-0.277,0-0.546-0.142-0.696-0.398c-0.226-0.384-0.097-0.878,0.287-1.103
				c11.736-6.889,19.027-19.613,19.027-33.207c0-13.593-7.291-26.318-19.028-33.207c-0.384-0.225-0.512-0.719-0.287-1.103
				c0.226-0.383,0.719-0.512,1.103-0.287c12.228,7.178,19.824,20.435,19.824,34.597s-7.596,27.42-19.823,34.597
				C15.574,84.767,15.434,84.803,15.295,84.803z"/>
		</g>
		<g>
			<path fill="#373636" d="M13.506,21.942c-0.203,0-0.407-0.076-0.563-0.229c-0.318-0.311-0.324-0.821-0.013-1.14l6.379-6.528
				c0.311-0.318,0.822-0.324,1.14-0.013c0.318,0.311,0.324,0.821,0.013,1.14l-6.379,6.528
				C13.924,21.861,13.715,21.942,13.506,21.942z"/>
		</g>
		<g>
			<path fill="#373636" d="M16.014,23.451c-0.209,0-0.418-0.081-0.576-0.242c-0.311-0.318-0.306-0.828,0.012-1.14l6.522-6.384
				c0.318-0.312,0.828-0.306,1.14,0.012c0.311,0.318,0.306,0.828-0.012,1.14l-6.522,6.384
				C16.421,23.375,16.218,23.451,16.014,23.451z"/>
		</g>
		<g>
			<path fill="#373636" d="M18.426,25.175c-0.213,0-0.424-0.083-0.583-0.249c-0.307-0.322-0.296-0.832,0.026-1.14l6.599-6.305
				c0.322-0.308,0.831-0.296,1.14,0.026c0.307,0.322,0.296,0.832-0.026,1.14l-6.599,6.305
				C18.826,25.101,18.626,25.175,18.426,25.175z"/>
		</g>
		<g>
			<path fill="#373636" d="M20.933,27.288c-0.216,0-0.431-0.086-0.59-0.257c-0.303-0.326-0.285-0.836,0.041-1.139l6.678-6.221
				c0.326-0.303,0.835-0.285,1.139,0.041c0.303,0.326,0.285,0.836-0.041,1.139l-6.678,6.221
				C21.327,27.217,21.13,27.288,20.933,27.288z"/>
		</g>
		<g>
			<path fill="#373636" d="M23.473,30.306c-0.226,0-0.449-0.094-0.609-0.277c-0.292-0.336-0.256-0.845,0.08-1.137l6.889-5.988
				c0.337-0.293,0.846-0.255,1.137,0.079c0.292,0.336,0.256,0.845-0.08,1.137l-6.889,5.988
				C23.849,30.242,23.661,30.306,23.473,30.306z"/>
		</g>
		<g>
			<path fill="#373636" d="M25.186,33.187c-0.26,0-0.514-0.125-0.67-0.357c-0.248-0.37-0.149-0.87,0.22-1.119l7.58-5.086
				c0.37-0.249,0.87-0.149,1.119,0.22c0.248,0.37,0.149,0.87-0.22,1.118l-7.58,5.086C25.496,33.143,25.34,33.187,25.186,33.187z"/>
		</g>
		<g>
			<path fill="#373636" d="M26.906,36.118c-0.288,0-0.568-0.155-0.712-0.427c-0.209-0.393-0.06-0.881,0.333-1.09l8.058-4.286
				c0.394-0.209,0.882-0.06,1.09,0.333c0.209,0.393,0.06,0.881-0.333,1.09l-8.058,4.286C27.163,36.088,27.034,36.118,26.906,36.118z
				"/>
		</g>
		<g>
			<path fill="#373636" d="M28.037,39.019c-0.325,0-0.632-0.199-0.754-0.521c-0.157-0.416,0.052-0.882,0.469-1.039l8.537-3.229
				c0.418-0.157,0.882,0.052,1.039,0.469c0.157,0.416-0.053,0.882-0.469,1.039l-8.537,3.229
				C28.229,39.002,28.132,39.019,28.037,39.019z"/>
		</g>
		<g>
			<path fill="#373636" d="M28.721,41.87c-0.373,0-0.708-0.261-0.788-0.64c-0.092-0.436,0.187-0.863,0.623-0.955l8.932-1.878
				c0.434-0.093,0.863,0.187,0.954,0.623c0.092,0.436-0.187,0.863-0.623,0.955l-8.932,1.878
				C28.831,41.865,28.776,41.87,28.721,41.87z"/>
		</g>
		<g>
			<path fill="#373636" d="M29.422,44.92c-0.416,0-0.769-0.32-0.802-0.741c-0.036-0.444,0.295-0.832,0.739-0.868l9.098-0.729
				c0.446-0.041,0.832,0.295,0.868,0.739c0.036,0.444-0.295,0.832-0.739,0.868l-9.098,0.729
				C29.465,44.919,29.443,44.92,29.422,44.92z"/>
		</g>
		<g>
			<path fill="#373636" d="M29.715,48.839c-0.416,0-0.769-0.32-0.802-0.742c-0.036-0.444,0.295-0.832,0.739-0.867l9.098-0.728
				c0.438-0.046,0.832,0.295,0.867,0.739c0.036,0.444-0.295,0.832-0.739,0.867l-9.098,0.728
				C29.758,48.838,29.737,48.839,29.715,48.839z"/>
		</g>
		<g>
			<path fill="#373636" d="M38.829,52.231c-0.002,0-0.004,0-0.006,0l-9.127-0.066c-0.445-0.003-0.803-0.367-0.8-0.812
				c0.003-0.445,0.386-0.83,0.812-0.8l9.127,0.066c0.445,0.003,0.803,0.367,0.8,0.812C39.631,51.874,39.271,52.231,38.829,52.231z"
				/>
		</g>
		<g>
			<path fill="#373636" d="M38.52,56.398c-0.022,0-0.045-0.001-0.068-0.003l-9.096-0.759c-0.444-0.037-0.773-0.427-0.736-0.87
				c0.037-0.444,0.425-0.779,0.87-0.736l9.096,0.759c0.444,0.037,0.773,0.427,0.736,0.87C39.287,56.08,38.935,56.398,38.52,56.398z"
				/>
		</g>
		<g>
			<path fill="#373636" d="M37.795,60.55c-0.042,0-0.084-0.003-0.127-0.01l-9.016-1.421c-0.44-0.069-0.74-0.482-0.671-0.922
				c0.07-0.44,0.483-0.738,0.922-0.671l9.016,1.421c0.44,0.069,0.74,0.482,0.671,0.922C38.527,60.266,38.184,60.55,37.795,60.55z"/>
		</g>
		<g>
			<path fill="#373636" d="M37.211,64.52c-0.067,0-0.136-0.009-0.204-0.027l-8.831-2.307c-0.431-0.112-0.688-0.553-0.576-0.983
				c0.112-0.43,0.55-0.692,0.983-0.576l8.831,2.307c0.43,0.112,0.688,0.553,0.576,0.983C37.896,64.28,37.57,64.52,37.211,64.52z"/>
		</g>
		<g>
			<path fill="#373636" d="M35.013,68.296c-0.094,0-0.189-0.017-0.283-0.052l-8.548-3.198c-0.417-0.156-0.628-0.62-0.472-1.037
				c0.156-0.417,0.621-0.629,1.037-0.472l8.549,3.198c0.417,0.156,0.628,0.62,0.472,1.037
				C35.646,68.096,35.339,68.296,35.013,68.296z"/>
		</g>
		<g>
			<path fill="#373636" d="M33.353,73.032c-0.133,0-0.267-0.033-0.391-0.102l-7.975-4.439c-0.389-0.216-0.529-0.707-0.312-1.096
				c0.216-0.389,0.709-0.529,1.096-0.312l7.975,4.439c0.389,0.216,0.529,0.707,0.312,1.096
				C33.911,72.883,33.636,73.032,33.353,73.032z"/>
		</g>
		<g>
			<path fill="#373636" d="M30.787,77.307c-0.193,0-0.387-0.069-0.541-0.209l-6.76-6.132c-0.33-0.299-0.355-0.809-0.055-1.139
				c0.298-0.33,0.808-0.355,1.139-0.056l6.76,6.132c0.33,0.299,0.355,0.809,0.055,1.139C31.225,77.218,31.006,77.307,30.787,77.307z
				"/>
		</g>
		<g>
			<path fill="#373636" d="M28.012,80.376c-0.221,0-0.44-0.09-0.599-0.267l-6.107-6.783c-0.298-0.331-0.271-0.84,0.06-1.138
				c0.331-0.298,0.841-0.271,1.138,0.06l6.107,6.783c0.298,0.331,0.271,0.84-0.06,1.138C28.397,80.307,28.204,80.376,28.012,80.376z
				"/>
		</g>
		<g>
			<path fill="#373636" d="M24.599,83.591c-0.257,0-0.51-0.122-0.666-0.351l-5.158-7.53c-0.251-0.367-0.158-0.869,0.21-1.12
				c0.366-0.251,0.869-0.157,1.12,0.21l5.158,7.53c0.251,0.367,0.158,0.869-0.21,1.12C24.914,83.545,24.756,83.591,24.599,83.591z"
				/>
		</g>
		<g>
			<path fill="#373636" d="M21.991,85.845c-0.247,0-0.491-0.113-0.649-0.327l-5.429-7.337c-0.265-0.358-0.189-0.863,0.168-1.127
				c0.357-0.265,0.862-0.189,1.127,0.168l5.429,7.337c0.265,0.358,0.189,0.863-0.168,1.127
				C22.325,85.794,22.157,85.845,21.991,85.845z"/>
		</g>
		<g>
			<path fill="#373636" d="M19.877,87.041c-0.221,0-0.441-0.09-0.6-0.267l-6.101-6.789c-0.297-0.331-0.27-0.841,0.061-1.138
				c0.331-0.298,0.841-0.27,1.138,0.061l6.101,6.789c0.298,0.331,0.27,0.841-0.061,1.138C20.261,86.972,20.069,87.041,19.877,87.041
				z"/>
		</g>
	</g>
	<g>
		<g>
			<path fill="#373636" d="M83.908,84.803c-0.139,0-0.279-0.036-0.407-0.111c-12.228-7.177-19.823-20.434-19.823-34.597
				c0-14.163,7.596-27.42,19.824-34.597c0.384-0.226,0.878-0.098,1.103,0.287c0.226,0.384,0.097,0.878-0.287,1.103
				C72.581,23.777,65.29,36.502,65.29,50.095c0,13.594,7.291,26.318,19.027,33.207c0.384,0.225,0.512,0.719,0.287,1.103
				C84.454,84.66,84.185,84.803,83.908,84.803z"/>
		</g>
		<g>
			<path fill="#373636" d="M85.697,21.942c-0.209,0-0.418-0.081-0.577-0.243l-6.38-6.528c-0.311-0.318-0.305-0.828,0.013-1.14
				c0.318-0.311,0.828-0.305,1.14,0.013l6.38,6.528c0.311,0.318,0.305,0.828-0.013,1.14C86.104,21.865,85.9,21.942,85.697,21.942z"
				/>
		</g>
		<g>
			<path fill="#373636" d="M83.189,23.451c-0.203,0-0.407-0.076-0.564-0.23l-6.522-6.384c-0.318-0.312-0.324-0.822-0.012-1.14
				c0.312-0.318,0.822-0.323,1.14-0.012l6.522,6.384c0.318,0.312,0.324,0.822,0.012,1.14C83.607,23.37,83.398,23.451,83.189,23.451z
				"/>
		</g>
		<g>
			<path fill="#373636" d="M80.778,25.175c-0.2,0-0.401-0.074-0.557-0.223l-6.599-6.305c-0.322-0.308-0.333-0.818-0.026-1.14
				c0.309-0.322,0.818-0.333,1.14-0.026l6.599,6.305c0.322,0.308,0.333,0.818,0.026,1.14C81.202,25.091,80.99,25.175,80.778,25.175z
				"/>
		</g>
		<g>
			<path fill="#373636" d="M78.27,27.288c-0.197,0-0.394-0.072-0.549-0.216l-6.679-6.221c-0.326-0.303-0.344-0.814-0.041-1.139
				c0.305-0.325,0.814-0.343,1.139-0.041l6.679,6.221c0.326,0.303,0.344,0.814,0.041,1.139
				C78.701,27.202,78.486,27.288,78.27,27.288z"/>
		</g>
		<g>
			<path fill="#373636" d="M75.729,30.306c-0.187,0-0.376-0.065-0.529-0.198l-6.889-5.988c-0.336-0.292-0.372-0.801-0.08-1.137
				c0.292-0.335,0.801-0.373,1.137-0.079l6.889,5.988c0.336,0.292,0.372,0.801,0.08,1.137
				C76.179,30.212,75.955,30.306,75.729,30.306z"/>
		</g>
		<g>
			<path fill="#373636" d="M74.017,33.187c-0.154,0-0.311-0.044-0.448-0.137l-7.579-5.086c-0.37-0.248-0.468-0.749-0.22-1.118
				c0.248-0.37,0.749-0.469,1.118-0.22l7.579,5.086c0.37,0.248,0.468,0.749,0.22,1.119C74.531,33.061,74.277,33.187,74.017,33.187z"
				/>
		</g>
		<g>
			<path fill="#373636" d="M72.297,36.118c-0.128,0-0.257-0.03-0.378-0.094l-8.058-4.286c-0.393-0.209-0.542-0.697-0.333-1.09
				c0.209-0.393,0.696-0.542,1.09-0.333l8.058,4.286c0.393,0.209,0.542,0.697,0.333,1.09C72.865,35.963,72.586,36.118,72.297,36.118
				z"/>
		</g>
		<g>
			<path fill="#373636" d="M71.165,39.019c-0.095,0-0.191-0.017-0.285-0.052l-8.537-3.229c-0.416-0.158-0.626-0.623-0.469-1.039
				c0.157-0.416,0.623-0.625,1.039-0.469l8.537,3.229c0.416,0.158,0.626,0.623,0.469,1.039
				C71.797,38.82,71.491,39.019,71.165,39.019z"/>
		</g>
		<g>
			<path fill="#373636" d="M70.482,41.87c-0.055,0-0.111-0.005-0.166-0.017l-8.932-1.878c-0.435-0.092-0.714-0.519-0.623-0.955
				c0.091-0.435,0.519-0.715,0.954-0.623l8.932,1.878c0.436,0.092,0.715,0.519,0.623,0.955C71.19,41.61,70.855,41.87,70.482,41.87z"
				/>
		</g>
		<g>
			<path fill="#373636" d="M69.782,44.92c-0.022,0-0.043-0.001-0.065-0.003l-9.098-0.729c-0.444-0.035-0.775-0.424-0.739-0.868
				c0.035-0.444,0.42-0.78,0.868-0.739l9.098,0.729c0.444,0.035,0.774,0.424,0.739,0.868C70.551,44.6,70.198,44.92,69.782,44.92z"/>
		</g>
		<g>
			<path fill="#373636" d="M69.488,48.839c-0.022,0-0.043-0.001-0.065-0.003l-9.098-0.728c-0.444-0.035-0.775-0.424-0.739-0.867
				c0.035-0.444,0.427-0.784,0.867-0.739l9.098,0.728c0.444,0.035,0.775,0.424,0.739,0.867
				C70.257,48.519,69.904,48.839,69.488,48.839z"/>
		</g>
		<g>
			<path fill="#373636" d="M60.374,52.231c-0.442,0-0.803-0.357-0.806-0.8c-0.003-0.445,0.355-0.809,0.8-0.812l9.127-0.066
				c0.002,0,0.004,0,0.006,0c0.442,0,0.803,0.357,0.806,0.8c0.003,0.445-0.355,0.809-0.8,0.812l-9.127,0.066
				C60.378,52.231,60.376,52.231,60.374,52.231z"/>
		</g>
		<g>
			<path fill="#373636" d="M60.683,56.398c-0.415,0-0.767-0.318-0.802-0.739c-0.037-0.443,0.292-0.833,0.736-0.87l9.095-0.759
				c0.441-0.044,0.833,0.292,0.87,0.736c0.037,0.444-0.292,0.833-0.736,0.87l-9.095,0.759
				C60.728,56.397,60.706,56.398,60.683,56.398z"/>
		</g>
		<g>
			<path fill="#373636" d="M61.408,60.55c-0.39,0-0.732-0.283-0.795-0.68c-0.069-0.44,0.231-0.852,0.671-0.922l9.016-1.421
				c0.439-0.068,0.853,0.231,0.922,0.671c0.069,0.44-0.231,0.852-0.671,0.922l-9.016,1.421C61.492,60.546,61.45,60.55,61.408,60.55z
				"/>
		</g>
		<g>
			<path fill="#373636" d="M61.991,64.52c-0.358,0-0.685-0.24-0.779-0.603c-0.113-0.431,0.145-0.871,0.576-0.983l8.831-2.307
				c0.431-0.116,0.871,0.145,0.983,0.576c0.113,0.431-0.145,0.871-0.576,0.983l-8.831,2.307
				C62.127,64.512,62.059,64.52,61.991,64.52z"/>
		</g>
		<g>
			<path fill="#373636" d="M64.19,68.296c-0.327,0-0.634-0.2-0.755-0.524c-0.156-0.417,0.055-0.881,0.473-1.037l8.549-3.198
				c0.418-0.156,0.882,0.056,1.037,0.472c0.156,0.417-0.056,0.882-0.473,1.037l-8.548,3.198C64.38,68.28,64.284,68.296,64.19,68.296
				z"/>
		</g>
		<g>
			<path fill="#373636" d="M65.85,73.032c-0.283,0-0.558-0.149-0.705-0.414c-0.217-0.389-0.077-0.88,0.312-1.096l7.975-4.439
				c0.389-0.216,0.88-0.077,1.096,0.312c0.217,0.389,0.077,0.88-0.312,1.096l-7.975,4.439C66.117,72.999,65.982,73.032,65.85,73.032
				z"/>
		</g>
		<g>
			<path fill="#373636" d="M68.416,77.307c-0.22,0-0.438-0.089-0.597-0.264c-0.299-0.33-0.274-0.839,0.055-1.139l6.761-6.132
				c0.33-0.3,0.84-0.274,1.139,0.056c0.299,0.33,0.274,0.839-0.056,1.139l-6.76,6.132C68.803,77.238,68.609,77.307,68.416,77.307z"
				/>
		</g>
		<g>
			<path fill="#373636" d="M71.191,80.376c-0.192,0-0.385-0.069-0.539-0.207c-0.331-0.298-0.358-0.808-0.06-1.138l6.107-6.783
				c0.297-0.331,0.808-0.358,1.138-0.06c0.331,0.298,0.358,0.808,0.06,1.138l-6.107,6.783
				C71.631,80.286,71.412,80.376,71.191,80.376z"/>
		</g>
		<g>
			<path fill="#373636" d="M74.604,83.591c-0.157,0-0.316-0.046-0.455-0.141c-0.368-0.252-0.461-0.753-0.21-1.12l5.158-7.53
				c0.252-0.367,0.754-0.46,1.12-0.21c0.368,0.252,0.461,0.753,0.21,1.12l-5.158,7.53C75.114,83.468,74.861,83.591,74.604,83.591z"
				/>
		</g>
		<g>
			<path fill="#373636" d="M77.212,85.845c-0.167,0-0.335-0.052-0.479-0.158c-0.358-0.264-0.433-0.769-0.168-1.127l5.429-7.337
				c0.265-0.357,0.77-0.433,1.127-0.168c0.358,0.264,0.433,0.769,0.168,1.127l-5.429,7.337
				C77.703,85.732,77.459,85.845,77.212,85.845z"/>
		</g>
		<g>
			<path fill="#373636" d="M79.326,87.041c-0.192,0-0.384-0.068-0.538-0.207c-0.331-0.298-0.358-0.807-0.061-1.138l6.101-6.789
				c0.297-0.33,0.808-0.359,1.138-0.061c0.331,0.298,0.358,0.807,0.061,1.138l-6.101,6.789
				C79.767,86.95,79.547,87.041,79.326,87.041z"/>
		</g>
	</g>
</g>
</svg>
