<?xml version="1.0" encoding="utf-8"?>
<!-- Generator: Adobe Illustrator 17.0.0, SVG Export Plug-In . SVG Version: 6.00 Build 0)  -->
<!DOCTYPE svg PUBLIC "-//W3C//DTD SVG 1.1//EN" "http://www.w3.org/Graphics/SVG/1.1/DTD/svg11.dtd">
<svg version="1.1" id="Layer_1" xmlns="http://www.w3.org/2000/svg" xmlns:xlink="http://www.w3.org/1999/xlink" x="0px" y="0px"
	 width="100px" height="100px" viewBox="0 0 100 100" enable-background="new 0 0 100 100" xml:space="preserve">
<g>
	<g>
		<defs>
			<circle id="SVGID_1_" cx="-72.417" cy="65.857" r="48.934"/>
		</defs>
		<clipPath id="SVGID_2_">
			<use xlink:href="#SVGID_1_"  overflow="visible"/>
		</clipPath>
		<g clip-path="url(#SVGID_2_)">
			<path fill="#373636" d="M-97.919,31.066c-0.008,0-0.017,0-0.025,0c-0.45-0.014-0.804-0.39-0.79-0.84
				c0.008-0.258,0.212-6.351,1.818-9.434c0.208-0.399,0.7-0.556,1.1-0.346c0.399,0.208,0.555,0.7,0.346,1.1
				c-1.433,2.752-1.632,8.671-1.634,8.73C-97.117,30.718-97.48,31.066-97.919,31.066z"/>
		</g>
		<g clip-path="url(#SVGID_2_)">
			<path fill="#373636" d="M-118.767,48.25c-0.286,0-0.564-0.151-0.713-0.418c-0.22-0.393-0.079-0.89,0.315-1.11
				c2.735-1.527,6.707-2.217,6.875-2.246c0.445-0.076,0.865,0.223,0.941,0.667c0.076,0.444-0.222,0.865-0.666,0.941
				c-0.038,0.006-3.866,0.673-6.355,2.062C-118.496,48.217-118.632,48.25-118.767,48.25z"/>
		</g>
		<g clip-path="url(#SVGID_2_)">
			<path fill="#373636" d="M-82.143,35.597c-0.266,0-0.526-0.129-0.683-0.368c-0.247-0.376-0.142-0.882,0.235-1.129
				c0.303-0.199,7.587-4.889,22.18-6.752c0.452-0.055,0.856,0.26,0.913,0.706c0.057,0.447-0.259,0.855-0.706,0.912
				c-14.223,1.816-21.421,6.451-21.492,6.498C-81.835,35.554-81.99,35.597-82.143,35.597z"/>
		</g>
		<g clip-path="url(#SVGID_2_)">
			<path fill="#373636" d="M-45.514,64.805c-0.056,0-0.111-0.006-0.168-0.018c-0.441-0.092-0.723-0.525-0.631-0.966
				c2.982-14.21,2.463-21.355,2.458-21.426c-0.035-0.448,0.299-0.841,0.748-0.878c0.46-0.035,0.842,0.299,0.878,0.747
				c0.024,0.296,0.551,7.412-2.488,21.891C-44.797,64.541-45.136,64.805-45.514,64.805z"/>
		</g>
		<g clip-path="url(#SVGID_2_)">
			<path fill="#373636" d="M-66.921,71.402c-0.192,0-0.384-0.067-0.538-0.203c-12.69-11.16-19.544-16.821-19.611-16.877
				c-0.348-0.287-0.397-0.801-0.11-1.148c0.287-0.347,0.802-0.396,1.148-0.11c0.068,0.056,6.938,5.731,19.65,16.91
				c0.339,0.297,0.371,0.813,0.074,1.151C-66.47,71.308-66.695,71.402-66.921,71.402z"/>
		</g>
		<g clip-path="url(#SVGID_2_)">
			<path fill="#373636" d="M-107.496,82.828c-0.426,0-0.785-0.33-0.813-0.761c-0.724-10.911,2.579-21.276,2.72-21.712
				c0.139-0.429,0.599-0.662,1.027-0.525c0.429,0.139,0.663,0.598,0.525,1.027c-0.033,0.104-3.347,10.512-2.644,21.102
				c0.029,0.45-0.311,0.838-0.76,0.868C-107.46,82.827-107.478,82.828-107.496,82.828z"/>
		</g>
		<g clip-path="url(#SVGID_2_)">
			<path fill="#373636" d="M-91.3,98.972c-0.365,0-0.697-0.246-0.79-0.615c-0.111-0.436,0.153-0.88,0.59-0.991
				c0.128-0.033,12.911-3.295,21.588-7.376c0.407-0.194,0.894-0.016,1.086,0.391c0.191,0.408,0.017,0.894-0.391,1.085
				c-8.821,4.148-21.752,7.449-21.882,7.481C-91.167,98.964-91.234,98.972-91.3,98.972z"/>
		</g>
		<g clip-path="url(#SVGID_2_)">
			<path fill="#373636" d="M-52.581,112.346c-0.097,0-0.195-0.018-0.291-0.054c-0.421-0.161-0.631-0.632-0.47-1.053
				c2.308-6.037,2.154-12.097,2.152-12.158c-0.014-0.45,0.341-0.826,0.791-0.84c0.008,0,0.017,0,0.025,0
				c0.438,0,0.8,0.349,0.815,0.79c0.008,0.26,0.17,6.437-2.26,12.79C-51.943,112.146-52.253,112.346-52.581,112.346z"/>
		</g>
		<g clip-path="url(#SVGID_2_)">
			<path fill="#373636" d="M-69.865,116.221c-0.05,0-0.101-0.004-0.152-0.014c-10.115-1.912-20.357-7.998-20.788-8.256
				c-0.387-0.231-0.512-0.732-0.281-1.119c0.231-0.387,0.732-0.512,1.119-0.281c0.103,0.062,10.429,6.195,20.252,8.053
				c0.443,0.084,0.734,0.51,0.65,0.953C-69.138,115.948-69.48,116.221-69.865,116.221z"/>
		</g>
		<g clip-path="url(#SVGID_2_)">
			<path fill="#373636" d="M-36.292,82.332c-0.312,0-0.491-0.012-0.527-0.015c-0.449-0.035-0.785-0.427-0.75-0.877
				c0.035-0.449,0.432-0.784,0.874-0.75c0.046,0.001,4.761,0.301,12.005-3.056c0.412-0.189,0.894-0.011,1.083,0.397
				c0.19,0.409,0.012,0.894-0.397,1.083C-30.339,82.051-34.81,82.332-36.292,82.332z"/>
		</g>
		<g clip-path="url(#SVGID_2_)">
			<path fill="#373636" d="M-23.25,61.435c-0.361,0-0.691-0.242-0.788-0.607c-3.057-11.534-10.724-18.72-10.802-18.792
				c-0.331-0.306-0.351-0.822-0.045-1.152c0.307-0.332,0.822-0.351,1.152-0.045c0.329,0.304,8.094,7.584,11.271,19.571
				c0.115,0.436-0.144,0.882-0.58,0.998C-23.11,61.426-23.18,61.435-23.25,61.435z"/>
		</g>
		<g clip-path="url(#SVGID_2_)">
			<g>
				<path fill="#373636" d="M-43.03,42.513c2.916-0.108,8.964-0.864,8.964-0.864c0.216-2.592,0.432-5.616,0.432-5.616l0-0.003
					C-39.92,27.87-48.72,21.755-58.878,18.835c-1.126,5.589-2.188,9.423-2.188,9.423C-50.266,33.442-43.03,42.513-43.03,42.513z"/>
			</g>
			<g>
				<path fill="#373636" d="M-112.363,45.321c0,0,0.902,5.94,7.471,15.551c0,0,6.569-3.24,18.556-7.02c0,0,1.188-8.316,4.428-19.223
					c0,0-5.508-3.888-15.983-4.86C-97.892,29.77-105.344,33.334-112.363,45.321z"/>
			</g>
			<g>
				<path fill="#373636" d="M-45.41,63.475c0,0-10.665,4.063-22.092,6.602c0,0-1.397,13.839-2.666,20.949
					c0,0,8.761,7.618,19.806,8.507c0,0,10.03-7.999,13.966-18.029C-36.396,81.504-37.412,73.125-45.41,63.475z"/>
			</g>
			<g>
				<path fill="#373636" d="M-107.495,82.012c0,0-3.174,2.158-9.014,3.936l-0.237,0.635c4.311,9.204,11.401,16.839,20.193,21.835
					c0.599-0.228,0.993-0.379,0.993-0.379s3.776-0.302,5.459-0.621c0,0-0.788-3.345-0.508-9.409
					C-90.609,98.009-101.528,90.646-107.495,82.012z"/>
			</g>
		</g>
	</g>
	<g>
		<path fill="#373636" d="M-72.417,115.607c-27.432,0-49.75-22.318-49.75-49.75c0-27.432,22.318-49.75,49.75-49.75
			s49.75,22.318,49.75,49.75C-22.667,93.29-44.984,115.607-72.417,115.607z M-72.417,17.738c-26.533,0-48.119,21.586-48.119,48.119
			s21.586,48.119,48.119,48.119c26.532,0,48.119-21.586,48.119-48.119S-45.884,17.738-72.417,17.738z"/>
	</g>
</g>
<g>
	<path fill="#373636" d="M48.777,48.872V37.381c-10.968-0.422-17.291-6.417-23.398-12.24c-3.508-3.344-6.868-6.516-10.992-8.586
		C6.394,25.038,1.404,36.371,1.096,48.872H48.777z"/>
	<path fill="#373636" d="M48.777,62.811V51.319H1.096c0.308,12.501,5.297,23.834,13.29,32.318c4.124-2.07,7.484-5.243,10.992-8.586
		C31.486,69.228,37.809,63.233,48.777,62.811z"/>
	<path fill="#373636" d="M74.622,25.141c-6.108,5.822-12.431,11.818-23.398,12.24v11.492h47.68
		c-0.308-12.501-5.297-23.834-13.29-32.318C81.49,18.625,78.13,21.798,74.622,25.141z"/>
	<path fill="#373636" d="M83.799,14.728C75.288,6.593,63.852,1.503,51.223,1.192v33.743c9.985-0.414,15.693-5.829,21.71-11.564
		C76.245,20.214,79.648,16.979,83.799,14.728z"/>
	<path fill="#373636" d="M51.223,51.319v11.492c10.968,0.422,17.29,6.417,23.398,12.24c3.508,3.344,6.868,6.516,10.992,8.586
		c7.993-8.483,12.982-19.816,13.29-32.317H51.223z"/>
	<path fill="#373636" d="M72.933,76.821c-6.017-5.735-11.725-11.15-21.71-11.564v33.742c12.629-0.311,24.064-5.4,32.575-13.536
		C79.648,83.213,76.245,79.978,72.933,76.821z"/>
	<path fill="#373636" d="M48.777,34.935V1.192c-12.629,0.311-24.065,5.4-32.575,13.536c4.151,2.25,7.554,5.486,10.865,8.642
		C33.083,29.106,38.792,34.52,48.777,34.935z"/>
	<path fill="#373636" d="M48.777,65.257c-9.984,0.414-15.693,5.829-21.71,11.564c-3.311,3.157-6.714,6.392-10.865,8.642
		c8.511,8.136,19.947,13.225,32.575,13.536V65.257z"/>
</g>
</svg>
