<?xml version="1.0" encoding="utf-8"?>
<!-- Generator: Adobe Illustrator 17.0.0, SVG Export Plug-In . SVG Version: 6.00 Build 0)  -->
<!DOCTYPE svg PUBLIC "-//W3C//DTD SVG 1.1//EN" "http://www.w3.org/Graphics/SVG/1.1/DTD/svg11.dtd">
<svg version="1.1" id="Layer_1" xmlns="http://www.w3.org/2000/svg" xmlns:xlink="http://www.w3.org/1999/xlink" x="0px" y="0px"
	 width="100px" height="100px" viewBox="0 0 100 100" enable-background="new 0 0 100 100" xml:space="preserve">
<g>
	<g>
		<path fill="#373636" d="M90.917,14.048c3.245,3.245,6.261,6.542,9.066,9.848c0.341-12.634-2.732-21.138-2.732-21.138
			s-9.015-3.256-22.269-2.692C80.308,4.151,85.679,8.81,90.917,14.048z"/>
		<path fill="#373636" d="M84.149,20.817C76.686,13.354,68.95,6.991,61.467,1.932C49.763,4.693,36.481,10.918,23.699,23.7
			C10.842,36.557,4.619,49.92,1.882,61.673c5.049,7.454,11.388,15.157,18.82,22.589c5.322,5.322,10.78,10.052,16.19,14.184
			c12.096-2.556,26.03-8.75,39.416-22.137C89.62,62.999,95.82,49.147,98.403,37.099C94.254,31.659,89.501,26.169,84.149,20.817z"/>
		<path fill="#373636" d="M13.935,91.031C8.741,85.838,4.116,80.515,0.055,75.234C-0.457,88.35,2.756,97.253,2.756,97.253
			s8.399,3.033,20.9,2.737C20.394,97.215,17.139,94.235,13.935,91.031z"/>
	</g>
	<g>
		<path fill="#FFFFFF" d="M71.501,26.682l-1.812,1.812c-2.836-2.689-5.353-3.471-5.523-3.52c-0.793-0.233-1.618,0.223-1.857,1.012
			c-0.237,0.791,0.214,1.628,1.004,1.872c0.132,0.04,2.031,0.662,4.256,2.757l-3.274,3.274c-2.764-2.69-5.027-3.626-5.179-3.686
			c-0.768-0.305-1.631,0.065-1.945,0.837c-0.308,0.767,0.063,1.641,0.829,1.955c0.03,0.012,1.857,0.796,4.161,3.028l-3.131,3.131
			c-2.744-2.703-4.904-3.684-5.047-3.747c-0.758-0.332-1.641,0.009-1.973,0.767c-0.336,0.756,0.004,1.642,0.758,1.983
			c0.029,0.013,1.806,0.847,4.13,3.13l-4.036,4.036l-4.054-4.054c-0.588-0.588-1.538-0.588-2.126,0
			c-0.587,0.588-0.587,1.538,0,2.126l4.054,4.054l-3.292,3.292l-4.054-4.054c-0.588-0.587-1.538-0.587-2.126,0
			c-0.587,0.588-0.587,1.538,0,2.126l4.054,4.054l-4.035,4.035c-2.269-2.31-3.107-4.078-3.13-4.128
			c-0.336-0.756-1.22-1.099-1.979-0.766c-0.759,0.331-1.107,1.219-0.772,1.981c0.064,0.144,1.045,2.303,3.748,5.046l-3.131,3.131
			c-2.213-2.284-3.002-4.099-3.027-4.16c-0.309-0.768-1.179-1.142-1.949-0.837c-0.772,0.307-1.149,1.18-0.843,1.952
			c0.06,0.152,0.996,2.415,3.686,5.179l-3.274,3.274c-2.091-2.221-2.715-4.116-2.758-4.256c-0.237-0.791-1.068-1.245-1.861-1.012
			c-0.799,0.23-1.255,1.068-1.021,1.864c0.05,0.17,0.831,2.688,3.52,5.524l-1.812,1.812c-0.587,0.587-0.587,1.538,0,2.126
			c0.588,0.588,1.538,0.588,2.126,0l1.912-1.912c1.47,1.155,3.289,2.285,5.546,3.258c0.583,0.251,1.236,0.105,1.659-0.318
			c0.131-0.131,0.24-0.288,0.318-0.467c0.329-0.763-0.024-1.647-0.785-1.977c-1.861-0.802-3.366-1.714-4.596-2.64l3.249-3.249
			c1.419,1.155,3.142,2.328,5.239,3.42c0.597,0.31,1.306,0.181,1.757-0.271c0.106-0.106,0.197-0.228,0.271-0.369
			c0.383-0.736,0.098-1.644-0.639-2.028c-1.784-0.929-3.259-1.921-4.484-2.896l3.121-3.121c1.397,1.151,3.08,2.339,5.115,3.481
			c0.601,0.337,1.334,0.217,1.798-0.247c0.096-0.096,0.181-0.206,0.249-0.328c0.407-0.725,0.148-1.641-0.575-2.047
			c-1.76-0.987-3.222-2.01-4.446-2.999l3.929-3.929l4.053,4.053c0.588,0.587,1.538,0.587,2.126,0c0.587-0.588,0.587-1.538,0-2.126
			l-4.053-4.053l3.292-3.292l4.053,4.053c0.588,0.588,1.538,0.588,2.126,0c0.587-0.587,0.587-1.538,0-2.126l-4.053-4.053
			l3.929-3.929c0.99,1.223,2.012,2.685,3,4.445c0.406,0.724,1.322,0.982,2.047,0.575c0.123-0.069,0.233-0.154,0.328-0.249
			c0.464-0.464,0.584-1.197,0.247-1.798c-1.142-2.035-2.33-3.718-3.481-5.114l3.121-3.121c0.975,1.225,1.967,2.699,2.897,4.483
			c0.384,0.737,1.292,1.022,2.028,0.639c0.14-0.074,0.263-0.165,0.368-0.271c0.452-0.452,0.581-1.161,0.271-1.757
			c-1.093-2.097-2.266-3.82-3.421-5.239l3.249-3.249c0.926,1.229,1.838,2.735,2.64,4.596c0.329,0.761,1.213,1.114,1.976,0.785
			c0.18-0.078,0.336-0.187,0.467-0.318c0.423-0.423,0.569-1.075,0.318-1.659C74,34.009,72.87,32.189,71.715,30.72l1.912-1.912
			c0.588-0.588,0.588-1.538,0-2.126C73.039,26.094,72.088,26.094,71.501,26.682z"/>
	</g>
</g>
</svg>
