<?xml version="1.0" encoding="utf-8"?>
<!-- Generator: Adobe Illustrator 17.0.0, SVG Export Plug-In . SVG Version: 6.00 Build 0)  -->
<!DOCTYPE svg PUBLIC "-//W3C//DTD SVG 1.1//EN" "http://www.w3.org/Graphics/SVG/1.1/DTD/svg11.dtd">
<svg version="1.1" id="Layer_1" xmlns="http://www.w3.org/2000/svg" xmlns:xlink="http://www.w3.org/1999/xlink" x="0px" y="0px"
	 width="100px" height="100px" viewBox="0 0 100 100" enable-background="new 0 0 100 100" xml:space="preserve">
<g>
	<path fill="#373636" d="M49.225,53.391V43.63c-9.316-0.358-14.688-5.451-19.875-10.397c-2.98-2.84-5.835-5.535-9.337-7.294
		C13.224,33.144,8.985,42.771,8.723,53.39h40.502V53.391z"/>
	<path fill="#373636" d="M49.225,65.231v-9.762H8.723c0.261,10.619,4.5,20.246,11.29,27.452c3.503-1.758,6.357-4.453,9.337-7.294
		C34.537,70.682,39.908,65.589,49.225,65.231z"/>
	<path fill="#373636" d="M71.178,33.233c-5.189,4.945-10.559,10.038-19.875,10.397v9.762h40.502
		c-0.261-10.619-4.499-20.246-11.29-27.452C77.013,27.697,74.159,30.392,71.178,33.233z"/>
	<path fill="#373636" d="M78.974,24.388c-7.229-6.91-16.943-11.234-27.671-11.498v28.662c8.482-0.352,13.33-4.951,18.441-9.823
		C72.558,29.047,75.448,26.299,78.974,24.388z"/>
	<path fill="#373636" d="M51.303,55.469v9.762c9.316,0.358,14.687,5.451,19.875,10.397c2.979,2.84,5.835,5.535,9.337,7.294
		c6.789-7.206,11.028-16.832,11.29-27.452H51.303V55.469z"/>
	<path fill="#373636" d="M69.744,77.132c-5.111-4.872-9.96-9.471-18.441-9.823v28.662c10.727-0.264,20.442-4.587,27.671-11.498
		C75.448,82.562,72.558,79.814,69.744,77.132z"/>
	<path fill="#373636" d="M49.225,41.552V12.89c-10.727,0.264-20.442,4.587-27.671,11.498c3.526,1.912,6.417,4.66,9.23,7.341
		C35.895,36.6,40.744,41.199,49.225,41.552z"/>
	<path fill="#373636" d="M49.225,67.309c-8.481,0.352-13.33,4.951-18.441,9.823c-2.813,2.682-5.703,5.43-9.23,7.341
		c7.229,6.91,16.943,11.234,27.671,11.497V67.309z"/>
</g>
<rect x="24.208" y="22.78" fill="#FFFFFF" width="23.549" height="19.19"/>
<rect x="55.004" y="24.324" fill="#FFFFFF" width="23.767" height="19.368"/>
<path fill="#5D5E5E" d="M11.257,40.952c0,8.614,17.929,15.598,40.046,15.598s40.046-6.983,40.046-15.598l-2.234-1.457
	c0,8.614-16.929,15.598-37.812,15.598S13.491,48.11,13.491,39.495L11.257,40.952z"/>
<path fill="#5D5E5E" d="M11.257,50.834c0,8.614,17.929,15.598,40.046,15.598s40.046-6.983,40.046-15.598l-2.234-1.457
	c0,8.614-16.929,15.598-37.812,15.598S13.491,57.99,13.491,49.376L11.257,50.834z"/>
<path fill="#5D5E5E" d="M11.257,59.362c0,8.614,17.929,15.598,40.046,15.598s40.046-6.983,40.046-15.598l-2.234-1.457
	c0,8.614-16.929,15.598-37.812,15.598s-37.812-6.984-37.812-15.599L11.257,59.362z"/>
<g id="TiHMz3_1_">
	<g>
		<path fill="#5D5E5E" d="M67.859,60.262c-0.092-0.288-0.13-0.473-0.208-0.642c-2.027-4.412-4.066-8.819-6.08-13.236
			c-0.328-0.721-0.884-1.013-1.605-1.154c-1.933-0.376-3.858-0.787-5.793-1.149c-0.85-0.159-1.549-0.505-2.156-1.141
			c-1.254-1.316-2.441-1.315-3.72,0.008c-0.612,0.633-1.309,0.979-2.159,1.137c-1.936,0.362-3.861,0.771-5.794,1.149
			c-0.721,0.14-1.268,0.437-1.596,1.161c-1.891,4.169-3.814,8.324-5.724,12.485c-0.193,0.421-0.369,0.849-0.572,1.318l-6.038,14.417
			c-2.871-0.564-5.737-1.154-8.59-1.797c-3.541-0.799-6.528-2.874-9.615-4.687c-2.975-1.747-5.438-4.007-7.279-6.94
			c-0.536-0.854-0.711-1.737-0.476-2.703c2.522-10.416,6.091-20.419,11.692-29.615C17.065,20.8,23.197,13.854,31.243,8.76
			c5.852-3.706,12.277-5.603,19.605-5.8c7.101,0.344,13.915,2.682,20.041,6.978c7.638,5.356,13.487,12.33,18.143,20.353
			c5.131,8.839,8.466,18.372,10.875,28.26c0.225,0.923,0.03,1.749-0.455,2.543c-1.652,2.706-3.846,4.871-6.53,6.54
			c-1.249,0.777-2.539,1.488-3.784,2.273c-4.057,2.562-8.63,3.584-13.251,4.459c-0.697,0.132-1.397,0.259-2.095,0.385L67.859,60.262
			z M31.272,33.89c-1.432-0.059-2.279,0.417-3.054,1.103c-0.387,0.342-0.397,0.629-0.139,1.067c1.123,1.915,2.206,3.852,3.312,5.777
			c0.642,1.117,0.814,1.196,2.056,0.923c3.359-0.738,6.716-1.482,10.071-2.228c1.683-0.374,1.822-0.535,1.991-2.226
			c0.022-0.221-0.006-0.451,0.045-0.663c0.151-0.628-0.171-0.81-0.72-0.92c-3.263-0.653-6.521-1.327-9.779-2.005
			C33.675,34.43,32.301,34.116,31.272,33.89z M69.668,33.839c-0.523,0.049-0.803,0.048-1.073,0.105
			c-3.954,0.838-7.908,1.678-11.86,2.526c-2.192,0.47-2.188,0.475-1.786,2.675c0.121,0.661,0.433,1.096,1.146,1.239
			c1.303,0.262,2.594,0.584,3.892,0.871c2.325,0.514,4.651,1.028,6.98,1.526c1.152,0.245,1.364,0.141,1.944-0.869
			c0.98-1.706,1.956-3.414,2.926-5.127c0.81-1.43,0.695-1.837-0.812-2.55C70.535,34.006,69.977,33.927,69.668,33.839z"/>
	</g>
</g>
<g>
	<path fill="none" d="M71.023,34.236c-0.487-0.23-1.046-0.311-1.354-0.398c-0.522,0.049-0.803,0.048-1.073,0.105
		c-3.954,0.837-7.908,1.678-11.86,2.526c-2.192,0.47-2.188,0.476-1.786,2.675c0.121,0.661,0.433,1.096,1.146,1.239
		c1.303,0.262,2.594,0.584,3.892,0.871c2.325,0.514,4.651,1.028,6.98,1.526c1.152,0.245,1.364,0.141,1.944-0.869
		c0.98-1.706,1.956-3.414,2.926-5.127C72.646,35.357,72.531,34.95,71.023,34.236z"/>
	<path fill="none" d="M33.446,42.761c1.891-0.415,3.782-0.837,5.672-1.256c0.699-0.155,1.399-0.309,2.098-0.464
		c0.767-0.171,1.534-0.338,2.301-0.51c1.683-0.374,1.822-0.535,1.991-2.226c0.022-0.221-0.006-0.451,0.045-0.663
		c0.151-0.628-0.171-0.81-0.72-0.919c-2.553-0.512-5.104-1.041-7.654-1.569c-0.707-0.146-1.417-0.289-2.124-0.436
		c-1.381-0.288-2.755-0.602-3.784-0.827c-1.432-0.059-2.279,0.417-3.054,1.103c-0.387,0.342-0.397,0.629-0.14,1.067
		c0.83,1.414,1.636,2.843,2.447,4.268c0.287,0.504,0.576,1.006,0.865,1.509C32.032,42.954,32.204,43.033,33.446,42.761z"/>
	<path fill="none" d="M88.656,68.154c-0.406,0.945-0.849,1.874-1.34,2.776c0.617-0.314,1.226-0.648,1.822-1.024
		c1.131-0.715,2.299-1.371,3.442-2.068c-1.623,0.275-2.803,0.328-3.444,0.328C88.88,68.166,88.736,68.159,88.656,68.154z"/>
	<path fill="none" d="M8.21,68.128c0.897,0.527,1.786,1.074,2.683,1.607c1.298-0.596,2.253-1.117,2.844-1.463
		c-0.072-0.115-0.125-0.241-0.135-0.386c-0.759-11.444,2.705-22.315,2.852-22.772c0.037-0.115,0.097-0.215,0.172-0.3
		c-3.694-5.557-5.554-9.866-6.457-12.506c-4.1,7.525-6.962,15.544-9.115,23.841c0.245,2.351,0.658,4.652,1.215,6.896
		C3.909,65.096,5.899,66.772,8.21,68.128z"/>
	<path fill="none" d="M33.446,42.761c-1.242,0.272-1.414,0.194-2.056-0.923c-0.289-0.503-0.578-1.005-0.865-1.509
		c-6.458,2.256-10.688,4.103-12.426,4.9c0.024,0.134,0.028,0.273-0.017,0.412c-0.035,0.109-3.51,11.026-2.773,22.132
		c0.02,0.303-0.13,0.567-0.357,0.735c1.124,1.551,2.38,3.058,3.704,4.488c2.579,0.572,5.166,1.109,7.76,1.618l6.038-14.417
		c0.203-0.469,0.378-0.898,0.572-1.318c1.91-4.161,3.832-8.315,5.724-12.485c0.329-0.725,0.875-1.02,1.596-1.161
		c0.852-0.167,1.702-0.339,2.552-0.511c-1.494-1.278-2.755-2.351-3.779-3.216C37.228,41.925,35.337,42.346,33.446,42.761z"/>
	<path fill="none" d="M40.506,17.646c0.025-0.021,0.041-0.05,0.07-0.069c0.314-0.206,7.817-5.024,22.814-7.017
		c0.228-0.874,0.602-2.358,1.046-4.293c-4.329-1.96-8.893-3.078-13.588-3.306c-7.328,0.197-13.752,2.094-19.605,5.8
		c-2.081,1.318-4.029,2.764-5.866,4.317c-0.001,0.019-0.002,0.036-0.003,0.054C33.536,14.028,38.663,16.574,40.506,17.646z"/>
	<path fill="none" d="M81.204,26.278c-0.019-0.244,0.07-0.469,0.221-0.638c-1.943-2.239-8.264-9.015-17.043-13.561
		c-0.097,0.058-0.207,0.098-0.327,0.113c-14.918,1.904-22.467,6.766-22.542,6.815c-0.144,0.095-0.308,0.14-0.468,0.14
		c-0.015,0-0.029-0.01-0.044-0.011c-1.993,6.868-3.2,12.656-3.82,16.017c2.55,0.529,5.1,1.059,7.654,1.569
		c0.549,0.11,0.871,0.293,0.72,0.919c-0.051,0.212-0.023,0.443-0.045,0.663c-0.171,1.692-0.308,1.851-1.991,2.226
		c-0.767,0.171-1.534,0.339-2.301,0.51c1.075,0.912,2.35,1.998,3.818,3.259c0.368-0.072,0.736-0.147,1.104-0.217
		c0.85-0.158,1.547-0.505,2.159-1.137c1.279-1.323,2.467-1.323,3.72-0.008c0.607,0.637,1.306,0.983,2.156,1.141
		c1.935,0.362,3.86,0.773,5.793,1.149c0.721,0.14,1.276,0.433,1.605,1.154c1.039,2.279,2.089,4.552,3.136,6.827
		c6.506-1.827,11.85-3.715,13.923-4.472C81.753,33.842,81.21,26.353,81.204,26.278z M68.909,41.914
		c-0.58,1.009-0.792,1.114-1.944,0.869c-2.329-0.497-4.655-1.012-6.98-1.526c-1.298-0.287-2.589-0.609-3.892-0.871
		c-0.713-0.143-1.024-0.578-1.146-1.239c-0.402-2.199-0.406-2.204,1.786-2.675c3.952-0.848,7.906-1.689,11.86-2.526
		c0.269-0.057,0.55-0.057,1.073-0.105c0.309,0.088,0.868,0.168,1.354,0.398c1.508,0.714,1.622,1.12,0.812,2.55
		C70.865,38.499,69.89,40.207,68.909,41.914z"/>
	<path fill="none" d="M80.301,49.102c-0.01,0.049-0.036,0.09-0.054,0.135c6.29,7.913,8.159,14.865,8.633,17.211
		c0.635,0.014,3.199-0.012,7.112-1.182c1.324-1.22,2.495-2.595,3.46-4.174c0.485-0.794,0.679-1.62,0.455-2.543
		c-2.409-9.889-5.744-19.42-10.874-28.26c-0.841-1.447-1.735-2.848-2.655-4.224c-1.204,0.12-2.427,0.228-3.452,0.291
		C82.999,27.667,83.242,35.09,80.301,49.102z"/>
	<path fill="#373636" d="M25.377,13.076c-0.018,0.016-0.036,0.033-0.055,0.048c0.017,0.002,0.034,0.004,0.051,0.006
		C25.376,13.114,25.376,13.095,25.377,13.076z"/>
	<path fill="#373636" d="M41.514,19.008c0.075-0.048,7.624-4.91,22.542-6.815c0.119-0.015,0.229-0.056,0.327-0.113
		c-0.409-0.212-0.811-0.428-1.229-0.629c0,0,0.088-0.319,0.237-0.89c-14.998,1.993-22.5,6.811-22.814,7.017
		c-0.028,0.019-0.044,0.047-0.07,0.069c0.512,0.298,0.786,0.486,0.786,0.486c-0.101,0.34-0.194,0.669-0.291,1.004
		c0.015,0.001,0.029,0.011,0.044,0.011C41.206,19.148,41.369,19.103,41.514,19.008z"/>
	<path fill="#373636" d="M81.204,26.278c0.006,0.075,0.549,7.563-2.576,22.459c0.597-0.218,0.944-0.349,0.944-0.349
		c0.237,0.286,0.448,0.566,0.673,0.851c0.018-0.045,0.044-0.086,0.054-0.135c2.941-14.013,2.698-21.435,2.623-22.745
		c-0.303,0.018-0.593,0.034-0.855,0.044c0,0-0.232-0.288-0.643-0.761C81.274,25.809,81.185,26.034,81.204,26.278z"/>
	<path fill="#373636" d="M39.118,41.506c1.023,0.865,2.285,1.938,3.779,3.216c0.713-0.144,1.425-0.282,2.139-0.421
		c-1.468-1.261-2.743-2.347-3.818-3.259C40.517,41.196,39.818,41.351,39.118,41.506z"/>
	<path fill="#373636" d="M14.951,68.508c0.227-0.168,0.377-0.432,0.357-0.735c-0.737-11.107,2.738-22.023,2.773-22.132
		c0.044-0.139,0.041-0.278,0.017-0.412c-0.593,0.272-0.913,0.429-0.913,0.429c-0.197-0.288-0.372-0.562-0.559-0.844
		c-0.075,0.085-0.135,0.186-0.172,0.3c-0.148,0.457-3.612,11.329-2.852,22.772c0.01,0.144,0.064,0.27,0.135,0.386
		c0.47-0.276,0.719-0.443,0.719-0.443C14.613,68.058,14.787,68.281,14.951,68.508z"/>
	<path fill="#373636" d="M88.88,66.449c0.111,0.546,0.148,0.848,0.148,0.848c-0.114,0.29-0.249,0.57-0.372,0.857
		c0.08,0.005,0.224,0.012,0.48,0.012c0.641,0,1.821-0.053,3.444-0.328c0.113-0.069,0.229-0.134,0.342-0.205
		c1.117-0.694,2.128-1.496,3.07-2.366C92.079,66.437,89.515,66.464,88.88,66.449z"/>
	<path fill="#373636" d="M63.153,11.449c0.419,0.201,0.822,0.418,1.229,0.629c8.78,4.547,15.101,11.323,17.043,13.561
		c0.411,0.473,0.643,0.761,0.643,0.761c0.26-0.01,0.552-0.025,0.855-0.044c1.024-0.064,2.249-0.171,3.452-0.291
		c-4.184-6.249-9.228-11.74-15.487-16.129c-2.075-1.455-4.235-2.666-6.453-3.672c-0.444,1.937-0.819,3.419-1.046,4.293
		C63.24,11.131,63.153,11.449,63.153,11.449z"/>
	<path fill="#373636" d="M17.185,45.657c0,0,0.32-0.156,0.913-0.429c1.739-0.797,5.969-2.645,12.426-4.9
		c-0.811-1.425-1.618-2.853-2.447-4.268c-0.257-0.438-0.247-0.726,0.14-1.067c0.776-0.686,1.622-1.161,3.054-1.103
		c1.028,0.225,2.403,0.54,3.784,0.827c0.707,0.147,1.417,0.289,2.124,0.436c0.62-3.36,1.827-9.148,3.82-16.017
		c0.097-0.335,0.19-0.664,0.291-1.004c0,0-0.275-0.19-0.786-0.486c-1.843-1.071-6.97-3.618-15.131-4.515
		c-0.017-0.002-0.034-0.004-0.051-0.006c-5.24,4.442-9.543,9.784-13.176,15.747c-0.69,1.132-1.348,2.278-1.978,3.435
		c0.903,2.641,2.762,6.949,6.457,12.506C16.813,45.096,16.988,45.37,17.185,45.657z"/>
	<path fill="#373636" d="M89.028,67.297c0,0-0.037-0.302-0.148-0.848c-0.474-2.346-2.345-9.299-8.633-17.211
		c-0.226-0.284-0.436-0.564-0.673-0.851c0,0-0.346,0.131-0.944,0.349c-2.073,0.757-7.417,2.645-13.923,4.472
		c0.983,2.136,1.963,4.273,2.944,6.41c0.078,0.169,0.116,0.355,0.208,0.643l5.932,14.487c0.699-0.125,1.398-0.252,2.095-0.385
		c3.942-0.747,7.847-1.609,11.429-3.435c0.492-0.902,0.934-1.832,1.34-2.776C88.779,67.868,88.914,67.586,89.028,67.297z"/>
	<path fill="#373636" d="M14.455,67.83c0,0-0.248,0.168-0.719,0.443c-0.591,0.346-1.546,0.867-2.844,1.463
		c2.188,1.302,4.42,2.513,6.933,3.08c0.276,0.063,0.554,0.118,0.83,0.18c-1.323-1.429-2.58-2.936-3.704-4.488
		C14.787,68.281,14.613,68.058,14.455,67.83z"/>
	<path fill="#373636" d="M2.268,63.046c-0.557-2.245-0.97-4.545-1.215-6.896c-0.202,0.778-0.41,1.553-0.6,2.336
		c-0.234,0.966-0.06,1.849,0.476,2.703C1.343,61.845,1.796,62.455,2.268,63.046z"/>
</g>
</svg>
