<?xml version="1.0" encoding="utf-8"?>
<!-- Generator: Adobe Illustrator 17.0.0, SVG Export Plug-In . SVG Version: 6.00 Build 0)  -->
<!DOCTYPE svg PUBLIC "-//W3C//DTD SVG 1.1//EN" "http://www.w3.org/Graphics/SVG/1.1/DTD/svg11.dtd">
<svg version="1.1" id="Layer_1" xmlns="http://www.w3.org/2000/svg" xmlns:xlink="http://www.w3.org/1999/xlink" x="0px" y="0px"
	 width="100px" height="100px" viewBox="0 0 100 100" enable-background="new 0 0 100 100" xml:space="preserve">
<g>
	<g>
		<defs>
			<circle id="SVGID_1_" cx="50" cy="50" r="48.934"/>
		</defs>
		<clipPath id="SVGID_2_">
			<use xlink:href="#SVGID_1_"  overflow="visible"/>
		</clipPath>
		<g clip-path="url(#SVGID_2_)">
			<path fill="#373636" d="M24.498,15.209c-0.008,0-0.017,0-0.025,0c-0.45-0.014-0.804-0.39-0.79-0.84
				c0.008-0.258,0.212-6.351,1.818-9.434c0.208-0.399,0.7-0.556,1.1-0.346c0.399,0.208,0.555,0.7,0.346,1.1
				c-1.433,2.752-1.632,8.671-1.634,8.73C25.299,14.86,24.937,15.209,24.498,15.209z"/>
		</g>
		<g clip-path="url(#SVGID_2_)">
			<path fill="#373636" d="M3.65,32.393c-0.286,0-0.564-0.151-0.713-0.418c-0.22-0.393-0.079-0.89,0.315-1.11
				c2.735-1.527,6.707-2.217,6.875-2.246c0.445-0.076,0.865,0.223,0.941,0.667c0.076,0.444-0.222,0.865-0.666,0.941
				c-0.038,0.006-3.866,0.673-6.355,2.062C3.92,32.36,3.784,32.393,3.65,32.393z"/>
		</g>
		<g clip-path="url(#SVGID_2_)">
			<path fill="#373636" d="M40.273,19.74c-0.266,0-0.526-0.129-0.683-0.368c-0.247-0.376-0.142-0.882,0.235-1.129
				c0.303-0.199,7.587-4.889,22.18-6.752c0.452-0.055,0.856,0.26,0.913,0.706c0.057,0.447-0.259,0.855-0.706,0.912
				c-14.223,1.816-21.421,6.451-21.492,6.498C40.582,19.697,40.427,19.74,40.273,19.74z"/>
		</g>
		<g clip-path="url(#SVGID_2_)">
			<path fill="#373636" d="M76.903,48.948c-0.056,0-0.111-0.006-0.168-0.018c-0.441-0.092-0.723-0.525-0.631-0.966
				c2.982-14.21,2.463-21.355,2.458-21.426c-0.035-0.448,0.299-0.841,0.748-0.878c0.46-0.035,0.842,0.299,0.878,0.747
				c0.024,0.296,0.551,7.412-2.488,21.891C77.62,48.684,77.28,48.948,76.903,48.948z"/>
		</g>
		<g clip-path="url(#SVGID_2_)">
			<path fill="#373636" d="M55.496,55.545c-0.192,0-0.384-0.067-0.538-0.203c-12.69-11.16-19.544-16.821-19.611-16.877
				c-0.348-0.287-0.397-0.801-0.11-1.148c0.287-0.347,0.802-0.396,1.148-0.11c0.068,0.056,6.938,5.731,19.65,16.91
				c0.339,0.297,0.371,0.813,0.074,1.151C55.947,55.451,55.722,55.545,55.496,55.545z"/>
		</g>
		<g clip-path="url(#SVGID_2_)">
			<path fill="#373636" d="M14.92,66.971c-0.426,0-0.785-0.33-0.813-0.761c-0.724-10.911,2.579-21.276,2.72-21.712
				c0.139-0.429,0.599-0.662,1.027-0.525c0.429,0.139,0.663,0.598,0.525,1.027c-0.033,0.104-3.347,10.512-2.644,21.102
				c0.029,0.45-0.311,0.838-0.76,0.868C14.957,66.97,14.939,66.971,14.92,66.971z"/>
		</g>
		<g clip-path="url(#SVGID_2_)">
			<path fill="#373636" d="M31.116,83.115c-0.365,0-0.697-0.246-0.79-0.615c-0.111-0.437,0.153-0.88,0.59-0.991
				c0.128-0.033,12.911-3.295,21.588-7.376c0.407-0.194,0.894-0.016,1.086,0.391c0.191,0.408,0.017,0.894-0.391,1.085
				c-8.821,4.148-21.752,7.449-21.882,7.481C31.25,83.107,31.182,83.115,31.116,83.115z"/>
		</g>
		<g clip-path="url(#SVGID_2_)">
			<path fill="#373636" d="M69.836,96.489c-0.097,0-0.195-0.018-0.291-0.054c-0.421-0.161-0.631-0.632-0.47-1.053
				c2.308-6.037,2.154-12.097,2.152-12.158c-0.014-0.45,0.341-0.826,0.791-0.84c0.008,0,0.017,0,0.025,0
				c0.438,0,0.8,0.349,0.815,0.79c0.008,0.26,0.17,6.437-2.26,12.79C70.474,96.289,70.164,96.489,69.836,96.489z"/>
		</g>
		<g clip-path="url(#SVGID_2_)">
			<path fill="#373636" d="M52.552,100.364c-0.05,0-0.101-0.004-0.152-0.014c-10.115-1.912-20.357-7.998-20.788-8.256
				c-0.387-0.231-0.512-0.732-0.281-1.119c0.231-0.387,0.732-0.512,1.119-0.281c0.103,0.062,10.429,6.195,20.252,8.053
				c0.443,0.084,0.734,0.51,0.65,0.953C53.278,100.091,52.937,100.364,52.552,100.364z"/>
		</g>
		<g clip-path="url(#SVGID_2_)">
			<path fill="#373636" d="M86.124,66.475c-0.312,0-0.491-0.012-0.527-0.015c-0.449-0.035-0.785-0.427-0.75-0.877
				c0.035-0.449,0.432-0.784,0.874-0.75c0.046,0.001,4.761,0.301,12.005-3.056c0.412-0.189,0.894-0.011,1.083,0.397
				c0.19,0.409,0.012,0.894-0.397,1.083C92.078,66.194,87.606,66.475,86.124,66.475z"/>
		</g>
		<g clip-path="url(#SVGID_2_)">
			<path fill="#373636" d="M99.167,45.578c-0.361,0-0.691-0.242-0.788-0.607c-3.057-11.534-10.724-18.72-10.802-18.792
				c-0.331-0.306-0.351-0.822-0.045-1.152c0.307-0.332,0.822-0.351,1.152-0.045c0.329,0.304,8.094,7.584,11.271,19.571
				c0.115,0.436-0.144,0.882-0.58,0.998C99.306,45.569,99.236,45.578,99.167,45.578z"/>
		</g>
		<g clip-path="url(#SVGID_2_)">
			<g>
				<path fill="#373636" d="M79.386,26.656c2.916-0.108,8.964-0.864,8.964-0.864c0.216-2.592,0.432-5.616,0.432-5.616l0-0.003
					C82.497,12.013,73.697,5.898,63.539,2.978c-1.126,5.589-2.188,9.423-2.188,9.423C72.151,17.585,79.386,26.656,79.386,26.656z"/>
			</g>
			<g>
				<path fill="#373636" d="M10.053,29.464c0,0,0.902,5.94,7.471,15.551c0,0,6.569-3.24,18.556-7.02c0,0,1.188-8.316,4.428-19.223
					c0,0-5.508-3.888-15.983-4.86C24.525,13.913,17.073,17.477,10.053,29.464z"/>
			</g>
			<g>
				<path fill="#373636" d="M77.006,47.618c0,0-10.665,4.063-22.092,6.602c0,0-1.397,13.839-2.666,20.949
					c0,0,8.761,7.618,19.806,8.507c0,0,10.03-7.999,13.966-18.029C86.021,65.647,85.005,57.267,77.006,47.618z"/>
			</g>
			<g>
				<path fill="#373636" d="M14.921,66.155c0,0-3.174,2.158-9.014,3.936L5.67,70.726c4.311,9.204,11.401,16.839,20.193,21.835
					c0.599-0.228,0.993-0.379,0.993-0.379s3.776-0.302,5.459-0.621c0,0-0.788-3.345-0.508-9.409
					C31.807,82.152,20.889,74.788,14.921,66.155z"/>
			</g>
		</g>
	</g>
	<g>
		<path fill="#373636" d="M50,99.75C22.568,99.75,0.25,77.432,0.25,50C0.25,22.568,22.568,0.25,50,0.25S99.75,22.568,99.75,50
			C99.75,77.432,77.432,99.75,50,99.75z M50,1.881C23.467,1.881,1.881,23.467,1.881,50S23.467,98.119,50,98.119
			c26.532,0,48.119-21.586,48.119-48.119S76.532,1.881,50,1.881z"/>
	</g>
</g>
</svg>
