<?xml version="1.0" encoding="utf-8"?>
<!-- Generator: Adobe Illustrator 17.0.0, SVG Export Plug-In . SVG Version: 6.00 Build 0)  -->
<!DOCTYPE svg PUBLIC "-//W3C//DTD SVG 1.1//EN" "http://www.w3.org/Graphics/SVG/1.1/DTD/svg11.dtd">
<svg version="1.1" id="Layer_1" xmlns="http://www.w3.org/2000/svg" xmlns:xlink="http://www.w3.org/1999/xlink" x="0px" y="0px"
	 width="100px" height="100px" viewBox="0 0 100 100" enable-background="new 0 0 100 100" xml:space="preserve">
<line fill="none" stroke="#000000" stroke-miterlimit="10" x1="11.646" y1="11.657" x2="90.824" y2="90.834"/>
<line fill="none" stroke="#000000" stroke-miterlimit="10" x1="11.646" y1="90.834" x2="90.824" y2="11.657"/>
<g>
	<g>
		<path fill="#373636" d="M22.909,64.136c-7.116,0-12.906-5.789-12.906-12.906c0-7.116,5.789-12.906,12.906-12.906
			s12.906,5.789,12.906,12.906C35.815,58.347,30.025,64.136,22.909,64.136z M22.909,38.748c-6.883,0-12.483,5.6-12.483,12.483
			s5.6,12.483,12.483,12.483s12.483-5.6,12.483-12.483S29.792,38.748,22.909,38.748z"/>
	</g>
	<g>
		<path fill="#373636" d="M22.909,64.136c-7.116,0-12.906-5.789-12.906-12.906c0-7.116,5.789-12.906,12.906-12.906
			s12.906,5.789,12.906,12.906C35.815,58.347,30.025,64.136,22.909,64.136z M22.909,38.748c-6.883,0-12.483,5.6-12.483,12.483
			s5.6,12.483,12.483,12.483s12.483-5.6,12.483-12.483S29.792,38.748,22.909,38.748z"/>
	</g>
	<g>
		<g>
			<path fill="#373636" d="M13.857,60.341c-0.073,0-0.143-0.037-0.183-0.104c-0.059-0.101-0.025-0.23,0.075-0.29
				c3.081-1.808,4.994-5.148,4.994-8.717c0-3.568-1.914-6.908-4.995-8.717c-0.101-0.059-0.134-0.189-0.075-0.29
				c0.059-0.101,0.189-0.134,0.29-0.075c3.21,1.884,5.203,5.364,5.203,9.081c0,3.718-1.994,7.197-5.203,9.081
				C13.93,60.332,13.894,60.341,13.857,60.341z"/>
		</g>
		<g>
			<path fill="#373636" d="M13.388,43.841c-0.053,0-0.107-0.02-0.148-0.06c-0.084-0.082-0.085-0.216-0.004-0.299l1.674-1.713
				c0.082-0.084,0.216-0.085,0.299-0.004c0.084,0.082,0.085,0.216,0.004,0.299l-1.674,1.713
				C13.497,43.819,13.442,43.841,13.388,43.841z"/>
		</g>
		<g>
			<path fill="#373636" d="M14.046,44.237c-0.055,0-0.11-0.021-0.151-0.064c-0.082-0.084-0.08-0.217,0.003-0.299l1.712-1.676
				c0.083-0.082,0.217-0.08,0.299,0.003c0.082,0.084,0.08,0.217-0.003,0.299l-1.712,1.676
				C14.153,44.217,14.099,44.237,14.046,44.237z"/>
		</g>
		<g>
			<path fill="#373636" d="M14.679,44.689c-0.056,0-0.111-0.022-0.153-0.065c-0.081-0.084-0.078-0.218,0.007-0.299l1.732-1.655
				c0.084-0.081,0.218-0.078,0.299,0.007c0.081,0.085,0.078,0.218-0.007,0.299l-1.732,1.655
				C14.784,44.67,14.731,44.689,14.679,44.689z"/>
		</g>
		<g>
			<path fill="#373636" d="M15.337,45.244c-0.057,0-0.113-0.023-0.155-0.067c-0.08-0.086-0.075-0.219,0.011-0.299l1.753-1.633
				c0.086-0.08,0.219-0.075,0.299,0.011c0.08,0.086,0.075,0.219-0.011,0.299l-1.753,1.633C15.44,45.225,15.389,45.244,15.337,45.244
				z"/>
		</g>
		<g>
			<path fill="#373636" d="M16.004,46.036c-0.059,0-0.118-0.025-0.16-0.073c-0.077-0.088-0.067-0.222,0.021-0.299l1.808-1.572
				c0.088-0.077,0.222-0.067,0.299,0.021c0.077,0.088,0.067,0.222-0.021,0.299l-1.808,1.572
				C16.103,46.019,16.053,46.036,16.004,46.036z"/>
		</g>
		<g>
			<path fill="#373636" d="M16.453,46.792c-0.068,0-0.135-0.033-0.176-0.094c-0.065-0.097-0.039-0.228,0.058-0.294l1.99-1.335
				c0.097-0.065,0.228-0.039,0.294,0.058c0.065,0.097,0.039,0.228-0.058,0.294l-1.99,1.335
				C16.535,46.781,16.494,46.792,16.453,46.792z"/>
		</g>
		<g>
			<path fill="#373636" d="M16.905,47.562c-0.076,0-0.149-0.041-0.187-0.112c-0.055-0.103-0.016-0.231,0.087-0.286l2.115-1.125
				c0.103-0.055,0.231-0.016,0.286,0.087c0.055,0.103,0.016,0.231-0.087,0.286l-2.115,1.125
				C16.972,47.554,16.938,47.562,16.905,47.562z"/>
		</g>
		<g>
			<path fill="#373636" d="M17.202,48.323c-0.085,0-0.166-0.052-0.198-0.137c-0.041-0.109,0.014-0.231,0.123-0.273l2.241-0.848
				c0.11-0.041,0.231,0.014,0.273,0.123c0.041,0.109-0.014,0.231-0.123,0.273l-2.241,0.848
				C17.252,48.319,17.227,48.323,17.202,48.323z"/>
		</g>
		<g>
			<path fill="#373636" d="M17.381,49.072c-0.098,0-0.186-0.068-0.207-0.168c-0.024-0.114,0.049-0.227,0.164-0.251l2.345-0.493
				c0.114-0.024,0.226,0.049,0.251,0.163c0.024,0.114-0.049,0.227-0.163,0.251l-2.345,0.493
				C17.41,49.07,17.396,49.072,17.381,49.072z"/>
		</g>
		<g>
			<path fill="#373636" d="M17.565,49.872c-0.109,0-0.202-0.084-0.211-0.195c-0.009-0.117,0.077-0.218,0.194-0.228l2.388-0.191
				c0.117-0.011,0.218,0.077,0.228,0.194c0.009,0.117-0.077,0.218-0.194,0.228l-2.388,0.191
				C17.577,49.872,17.571,49.872,17.565,49.872z"/>
		</g>
		<g>
			<path fill="#373636" d="M17.642,50.901c-0.109,0-0.202-0.084-0.211-0.195c-0.009-0.116,0.077-0.218,0.194-0.228l2.388-0.191
				c0.115-0.012,0.218,0.077,0.228,0.194c0.009,0.116-0.077,0.218-0.194,0.228L17.659,50.9
				C17.654,50.901,17.648,50.901,17.642,50.901z"/>
		</g>
		<g>
			<path fill="#373636" d="M20.034,51.791c-0.001,0-0.001,0-0.002,0l-2.396-0.017c-0.117-0.001-0.211-0.096-0.21-0.213
				c0.001-0.117,0.101-0.218,0.213-0.21l2.396,0.017c0.117,0.001,0.211,0.096,0.21,0.213C20.245,51.697,20.151,51.791,20.034,51.791
				z"/>
		</g>
		<g>
			<path fill="#373636" d="M19.953,52.885c-0.006,0-0.012,0-0.018-0.001l-2.388-0.199c-0.117-0.01-0.203-0.112-0.193-0.228
				c0.01-0.117,0.112-0.205,0.228-0.193l2.388,0.199c0.117,0.01,0.203,0.112,0.193,0.228C20.155,52.801,20.062,52.885,19.953,52.885
				z"/>
		</g>
		<g>
			<path fill="#373636" d="M19.763,53.975c-0.011,0-0.022-0.001-0.033-0.003l-2.367-0.373c-0.115-0.018-0.194-0.126-0.176-0.242
				c0.018-0.115,0.127-0.194,0.242-0.176l2.367,0.373c0.115,0.018,0.194,0.126,0.176,0.242C19.955,53.9,19.865,53.975,19.763,53.975
				z"/>
		</g>
		<g>
			<path fill="#373636" d="M19.61,55.017c-0.018,0-0.036-0.002-0.054-0.007l-2.318-0.606c-0.113-0.029-0.181-0.145-0.151-0.258
				c0.029-0.113,0.144-0.182,0.258-0.151l2.318,0.606c0.113,0.029,0.181,0.145,0.151,0.258C19.79,54.954,19.704,55.017,19.61,55.017
				z"/>
		</g>
		<g>
			<path fill="#373636" d="M19.033,56.008c-0.025,0-0.05-0.004-0.074-0.014l-2.244-0.839c-0.109-0.041-0.165-0.163-0.124-0.272
				c0.041-0.109,0.163-0.165,0.272-0.124l2.244,0.839c0.109,0.041,0.165,0.163,0.124,0.272
				C19.199,55.956,19.118,56.008,19.033,56.008z"/>
		</g>
		<g>
			<path fill="#373636" d="M18.597,57.251c-0.035,0-0.07-0.009-0.103-0.027l-2.093-1.165c-0.102-0.057-0.139-0.186-0.082-0.288
				c0.057-0.102,0.186-0.139,0.288-0.082l2.093,1.165c0.102,0.057,0.139,0.186,0.082,0.288
				C18.744,57.212,18.672,57.251,18.597,57.251z"/>
		</g>
		<g>
			<path fill="#373636" d="M17.924,58.373c-0.051,0-0.102-0.018-0.142-0.055l-1.774-1.61c-0.087-0.079-0.093-0.212-0.015-0.299
				c0.078-0.087,0.212-0.093,0.299-0.015l1.774,1.61c0.087,0.079,0.093,0.212,0.015,0.299C18.039,58.35,17.981,58.373,17.924,58.373
				z"/>
		</g>
		<g>
			<path fill="#373636" d="M17.195,59.179c-0.058,0-0.116-0.024-0.157-0.07l-1.603-1.78c-0.078-0.087-0.071-0.221,0.016-0.299
				c0.087-0.078,0.221-0.071,0.299,0.016l1.603,1.78c0.078,0.087,0.071,0.221-0.016,0.299
				C17.296,59.161,17.246,59.179,17.195,59.179z"/>
		</g>
		<g>
			<path fill="#373636" d="M16.299,60.023c-0.067,0-0.134-0.032-0.175-0.092l-1.354-1.977c-0.066-0.096-0.041-0.228,0.055-0.294
				c0.096-0.066,0.228-0.041,0.294,0.055l1.354,1.977c0.066,0.096,0.041,0.228-0.055,0.294
				C16.382,60.011,16.34,60.023,16.299,60.023z"/>
		</g>
		<g>
			<path fill="#373636" d="M15.615,60.615c-0.065,0-0.129-0.03-0.17-0.086l-1.425-1.926c-0.07-0.094-0.05-0.226,0.044-0.296
				c0.094-0.07,0.226-0.05,0.296,0.044l1.425,1.926c0.07,0.094,0.05,0.226-0.044,0.296C15.703,60.601,15.658,60.615,15.615,60.615z"
				/>
		</g>
		<g>
			<path fill="#373636" d="M15.06,60.928c-0.058,0-0.116-0.024-0.157-0.07l-1.601-1.782c-0.078-0.087-0.071-0.221,0.016-0.299
				c0.087-0.078,0.221-0.071,0.299,0.016l1.601,1.782c0.078,0.087,0.071,0.221-0.016,0.299C15.161,60.91,15.11,60.928,15.06,60.928z
				"/>
		</g>
	</g>
	<g>
		<g>
			<path fill="#373636" d="M31.867,60.341c-0.036,0-0.073-0.009-0.107-0.029c-3.21-1.884-5.203-5.364-5.203-9.081
				c0-3.718,1.994-7.197,5.203-9.081c0.101-0.059,0.23-0.026,0.29,0.075c0.059,0.101,0.025,0.23-0.075,0.29
				c-3.081,1.808-4.995,5.149-4.995,8.717c0,3.568,1.914,6.908,4.995,8.717c0.101,0.059,0.134,0.189,0.075,0.29
				C32.011,60.304,31.94,60.341,31.867,60.341z"/>
		</g>
		<g>
			<path fill="#373636" d="M32.337,43.841c-0.055,0-0.11-0.021-0.151-0.064l-1.675-1.713c-0.082-0.083-0.08-0.217,0.004-0.299
				c0.084-0.082,0.217-0.08,0.299,0.004l1.675,1.713c0.082,0.083,0.08,0.217-0.004,0.299C32.444,43.821,32.39,43.841,32.337,43.841z
				"/>
		</g>
		<g>
			<path fill="#373636" d="M31.679,44.237c-0.053,0-0.107-0.02-0.148-0.06l-1.712-1.676c-0.083-0.082-0.085-0.216-0.003-0.299
				c0.082-0.083,0.216-0.085,0.299-0.003l1.712,1.676c0.083,0.082,0.085,0.216,0.003,0.299
				C31.788,44.215,31.733,44.237,31.679,44.237z"/>
		</g>
		<g>
			<path fill="#373636" d="M31.046,44.689c-0.053,0-0.105-0.019-0.146-0.059l-1.732-1.655c-0.085-0.081-0.088-0.215-0.007-0.299
				c0.081-0.084,0.215-0.087,0.299-0.007l1.732,1.655c0.085,0.081,0.088,0.215,0.007,0.299
				C31.157,44.667,31.101,44.689,31.046,44.689z"/>
		</g>
		<g>
			<path fill="#373636" d="M30.387,45.244c-0.052,0-0.103-0.019-0.144-0.057l-1.753-1.633c-0.086-0.08-0.09-0.214-0.011-0.299
				c0.08-0.085,0.214-0.09,0.299-0.011l1.753,1.633c0.086,0.08,0.09,0.214,0.011,0.299C30.501,45.221,30.444,45.244,30.387,45.244z"
				/>
		</g>
		<g>
			<path fill="#373636" d="M29.721,46.036c-0.049,0-0.099-0.017-0.139-0.052l-1.808-1.572c-0.088-0.077-0.098-0.21-0.021-0.299
				c0.077-0.088,0.21-0.098,0.299-0.021l1.808,1.572c0.088,0.077,0.098,0.21,0.021,0.299C29.839,46.012,29.78,46.036,29.721,46.036z
				"/>
		</g>
		<g>
			<path fill="#373636" d="M29.271,46.792c-0.04,0-0.082-0.012-0.118-0.036l-1.989-1.335c-0.097-0.065-0.123-0.197-0.058-0.294
				c0.065-0.097,0.197-0.123,0.294-0.058l1.989,1.335c0.097,0.065,0.123,0.197,0.058,0.294
				C29.406,46.759,29.339,46.792,29.271,46.792z"/>
		</g>
		<g>
			<path fill="#373636" d="M28.82,47.562c-0.033,0-0.067-0.008-0.099-0.025l-2.115-1.125c-0.103-0.055-0.142-0.183-0.087-0.286
				c0.055-0.103,0.183-0.142,0.286-0.087l2.115,1.125c0.103,0.055,0.142,0.183,0.087,0.286
				C28.969,47.521,28.895,47.562,28.82,47.562z"/>
		</g>
		<g>
			<path fill="#373636" d="M28.523,48.323c-0.025,0-0.05-0.004-0.075-0.014l-2.241-0.848c-0.109-0.041-0.164-0.164-0.123-0.273
				c0.041-0.109,0.164-0.164,0.273-0.123l2.241,0.848c0.109,0.041,0.164,0.164,0.123,0.273
				C28.688,48.271,28.608,48.323,28.523,48.323z"/>
		</g>
		<g>
			<path fill="#373636" d="M28.343,49.072c-0.014,0-0.029-0.001-0.044-0.005l-2.345-0.493c-0.114-0.024-0.188-0.136-0.163-0.251
				c0.024-0.114,0.136-0.188,0.251-0.163l2.345,0.493c0.114,0.024,0.188,0.136,0.164,0.251
				C28.529,49.003,28.441,49.072,28.343,49.072z"/>
		</g>
		<g>
			<path fill="#373636" d="M28.159,49.872c-0.006,0-0.011,0-0.017-0.001l-2.388-0.191c-0.116-0.009-0.203-0.111-0.194-0.228
				c0.009-0.116,0.11-0.205,0.228-0.194l2.388,0.191c0.116,0.009,0.203,0.111,0.194,0.228
				C28.361,49.788,28.268,49.872,28.159,49.872z"/>
		</g>
		<g>
			<path fill="#373636" d="M28.082,50.901c-0.006,0-0.011,0-0.017-0.001l-2.388-0.191c-0.117-0.009-0.203-0.111-0.194-0.228
				c0.009-0.117,0.112-0.206,0.228-0.194l2.388,0.191c0.117,0.009,0.203,0.111,0.194,0.228
				C28.284,50.817,28.191,50.901,28.082,50.901z"/>
		</g>
		<g>
			<path fill="#373636" d="M25.69,51.791c-0.116,0-0.211-0.094-0.212-0.21c-0.001-0.117,0.093-0.212,0.21-0.213l2.396-0.017
				c0.001,0,0.001,0,0.002,0c0.116,0,0.211,0.094,0.212,0.21c0.001,0.117-0.093,0.212-0.21,0.213l-2.396,0.017
				C25.691,51.791,25.691,51.791,25.69,51.791z"/>
		</g>
		<g>
			<path fill="#373636" d="M25.771,52.885c-0.109,0-0.201-0.083-0.211-0.194c-0.01-0.116,0.077-0.219,0.193-0.228l2.387-0.199
				c0.116-0.011,0.219,0.077,0.228,0.193c0.01,0.116-0.077,0.219-0.193,0.228l-2.387,0.199
				C25.783,52.885,25.777,52.885,25.771,52.885z"/>
		</g>
		<g>
			<path fill="#373636" d="M25.961,53.975c-0.102,0-0.192-0.074-0.209-0.179c-0.018-0.115,0.061-0.224,0.176-0.242l2.367-0.373
				c0.115-0.018,0.224,0.061,0.242,0.176c0.018,0.115-0.061,0.224-0.176,0.242l-2.367,0.373
				C25.983,53.974,25.972,53.975,25.961,53.975z"/>
		</g>
		<g>
			<path fill="#373636" d="M26.114,55.017c-0.094,0-0.18-0.063-0.205-0.158c-0.03-0.113,0.038-0.229,0.151-0.258l2.318-0.606
				c0.113-0.03,0.229,0.038,0.258,0.151c0.03,0.113-0.038,0.229-0.151,0.258l-2.318,0.606C26.15,55.015,26.132,55.017,26.114,55.017
				z"/>
		</g>
		<g>
			<path fill="#373636" d="M26.692,56.008c-0.086,0-0.166-0.053-0.198-0.138c-0.041-0.109,0.015-0.231,0.124-0.272l2.244-0.839
				c0.11-0.041,0.231,0.015,0.272,0.124c0.041,0.11-0.015,0.231-0.124,0.272l-2.244,0.839
				C26.741,56.004,26.716,56.008,26.692,56.008z"/>
		</g>
		<g>
			<path fill="#373636" d="M27.127,57.251c-0.074,0-0.146-0.039-0.185-0.109c-0.057-0.102-0.02-0.231,0.082-0.288l2.093-1.165
				c0.102-0.057,0.231-0.02,0.288,0.082c0.057,0.102,0.02,0.231-0.082,0.288l-2.093,1.165
				C27.197,57.243,27.162,57.251,27.127,57.251z"/>
		</g>
		<g>
			<path fill="#373636" d="M27.801,58.373c-0.058,0-0.115-0.023-0.157-0.069c-0.079-0.087-0.072-0.22,0.015-0.299l1.775-1.61
				c0.087-0.079,0.221-0.072,0.299,0.015c0.079,0.087,0.072,0.22-0.015,0.299l-1.775,1.61
				C27.902,58.355,27.851,58.373,27.801,58.373z"/>
		</g>
		<g>
			<path fill="#373636" d="M28.529,59.179c-0.05,0-0.101-0.018-0.141-0.054c-0.087-0.078-0.094-0.212-0.016-0.299l1.603-1.78
				c0.078-0.087,0.212-0.094,0.299-0.016c0.087,0.078,0.094,0.212,0.016,0.299l-1.603,1.78
				C28.645,59.155,28.587,59.179,28.529,59.179z"/>
		</g>
		<g>
			<path fill="#373636" d="M29.425,60.023c-0.041,0-0.083-0.012-0.119-0.037c-0.096-0.066-0.121-0.198-0.055-0.294l1.354-1.977
				c0.066-0.096,0.198-0.121,0.294-0.055c0.096,0.066,0.121,0.198,0.055,0.294L29.6,59.931
				C29.559,59.991,29.493,60.023,29.425,60.023z"/>
		</g>
		<g>
			<path fill="#373636" d="M30.11,60.615c-0.044,0-0.088-0.014-0.126-0.042c-0.094-0.069-0.114-0.202-0.044-0.296l1.425-1.926
				c0.07-0.094,0.202-0.114,0.296-0.044c0.094,0.069,0.114,0.202,0.044,0.296l-1.425,1.926
				C30.239,60.585,30.175,60.615,30.11,60.615z"/>
		</g>
		<g>
			<path fill="#373636" d="M30.665,60.928c-0.05,0-0.101-0.018-0.141-0.054c-0.087-0.078-0.094-0.212-0.016-0.299l1.601-1.782
				c0.078-0.087,0.212-0.094,0.299-0.016c0.087,0.078,0.094,0.212,0.016,0.299l-1.601,1.782
				C30.78,60.905,30.723,60.928,30.665,60.928z"/>
		</g>
	</g>
</g>
<g>
	<path fill="#373636" d="M79.463,50.913v-2.981c-2.845-0.109-4.485-1.665-6.07-3.175c-0.91-0.867-1.782-1.69-2.851-2.227
		c-2.073,2.201-3.368,5.141-3.448,8.384H79.463z"/>
	<path fill="#373636" d="M79.463,54.529v-2.981H67.094c0.08,3.243,1.374,6.183,3.448,8.384c1.07-0.537,1.941-1.36,2.851-2.227
		C74.978,56.194,76.618,54.638,79.463,54.529z"/>
	<path fill="#373636" d="M86.168,44.757c-1.585,1.51-3.225,3.066-6.07,3.175v2.981h12.369c-0.08-3.243-1.374-6.183-3.448-8.384
		C87.95,43.066,87.078,43.89,86.168,44.757z"/>
	<path fill="#373636" d="M88.549,42.056c-2.208-2.11-5.174-3.431-8.45-3.511v8.753c2.59-0.108,4.071-1.512,5.632-3
		C86.589,43.479,87.472,42.639,88.549,42.056z"/>
	<path fill="#373636" d="M80.098,51.548v2.981c2.845,0.109,4.485,1.665,6.07,3.175c0.91,0.867,1.782,1.69,2.851,2.227
		c2.073-2.201,3.368-5.141,3.448-8.384H80.098z"/>
	<path fill="#373636" d="M85.73,58.163c-1.561-1.488-3.042-2.892-5.632-3v8.753c3.276-0.081,6.243-1.401,8.45-3.511
		C87.472,59.821,86.589,58.982,85.73,58.163z"/>
	<path fill="#373636" d="M79.463,47.297v-8.753c-3.276,0.081-6.243,1.401-8.45,3.511c1.077,0.584,1.96,1.423,2.819,2.242
		C75.392,45.785,76.873,47.19,79.463,47.297z"/>
	<path fill="#373636" d="M79.463,55.163c-2.59,0.108-4.071,1.512-5.632,3c-0.859,0.819-1.742,1.658-2.819,2.242
		c2.208,2.11,5.174,3.431,8.45,3.511V55.163z"/>
</g>
<g>
	<g>
		<defs>
			<circle id="SVGID_1_" cx="51.235" cy="23.58" r="12.694"/>
		</defs>
		<clipPath id="SVGID_2_">
			<use xlink:href="#SVGID_1_"  overflow="visible"/>
		</clipPath>
		<g clip-path="url(#SVGID_2_)">
			<path fill="#373636" d="M44.619,14.555c-0.002,0-0.004,0-0.007,0c-0.117-0.004-0.209-0.101-0.205-0.218
				c0.002-0.067,0.055-1.648,0.472-2.447c0.054-0.104,0.182-0.144,0.285-0.09c0.104,0.054,0.144,0.182,0.09,0.285
				c-0.372,0.714-0.423,2.249-0.424,2.265C44.827,14.464,44.733,14.555,44.619,14.555z"/>
		</g>
		<g clip-path="url(#SVGID_2_)">
			<path fill="#373636" d="M39.211,19.012c-0.074,0-0.146-0.039-0.185-0.108c-0.057-0.102-0.02-0.231,0.082-0.288
				c0.71-0.396,1.74-0.575,1.783-0.583c0.115-0.02,0.224,0.058,0.244,0.173c0.02,0.115-0.058,0.224-0.173,0.244
				c-0.01,0.002-1.003,0.175-1.648,0.535C39.281,19.004,39.246,19.012,39.211,19.012z"/>
		</g>
		<g clip-path="url(#SVGID_2_)">
			<path fill="#373636" d="M48.712,15.73c-0.069,0-0.136-0.034-0.177-0.096c-0.064-0.098-0.037-0.229,0.061-0.293
				c0.079-0.052,1.968-1.268,5.754-1.752c0.117-0.014,0.222,0.067,0.237,0.183c0.015,0.116-0.067,0.222-0.183,0.237
				c-3.69,0.471-5.557,1.673-5.575,1.686C48.792,15.719,48.752,15.73,48.712,15.73z"/>
		</g>
		<g clip-path="url(#SVGID_2_)">
			<path fill="#373636" d="M58.214,23.307c-0.014,0-0.029-0.001-0.044-0.005c-0.114-0.024-0.188-0.136-0.164-0.251
				c0.774-3.686,0.639-5.54,0.638-5.558c-0.009-0.116,0.078-0.218,0.194-0.228c0.119-0.009,0.218,0.077,0.228,0.194
				c0.006,0.077,0.143,1.923-0.645,5.679C58.4,23.238,58.312,23.307,58.214,23.307z"/>
		</g>
		<g clip-path="url(#SVGID_2_)">
			<path fill="#373636" d="M52.661,25.018c-0.05,0-0.1-0.017-0.14-0.053c-3.292-2.895-5.07-4.364-5.087-4.378
				c-0.09-0.074-0.103-0.208-0.029-0.298c0.074-0.09,0.208-0.103,0.298-0.029c0.018,0.015,1.8,1.487,5.097,4.387
				c0.088,0.077,0.096,0.211,0.019,0.299C52.778,24.994,52.719,25.018,52.661,25.018z"/>
		</g>
		<g clip-path="url(#SVGID_2_)">
			<path fill="#373636" d="M42.135,27.982c-0.11,0-0.204-0.086-0.211-0.198c-0.188-2.83,0.669-5.519,0.705-5.632
				c0.036-0.111,0.155-0.172,0.266-0.136c0.111,0.036,0.172,0.155,0.136,0.266c-0.009,0.027-0.868,2.727-0.686,5.474
				c0.008,0.117-0.081,0.217-0.197,0.225C42.144,27.982,42.14,27.982,42.135,27.982z"/>
		</g>
		<g clip-path="url(#SVGID_2_)">
			<path fill="#373636" d="M46.336,32.17c-0.095,0-0.181-0.064-0.205-0.16c-0.029-0.113,0.04-0.228,0.153-0.257
				c0.033-0.008,3.349-0.855,5.6-1.913c0.106-0.05,0.232-0.004,0.282,0.101c0.05,0.106,0.004,0.232-0.101,0.281
				c-2.288,1.076-5.643,1.932-5.677,1.941C46.371,32.168,46.353,32.17,46.336,32.17z"/>
		</g>
		<g clip-path="url(#SVGID_2_)">
			<path fill="#373636" d="M56.381,35.639c-0.025,0-0.051-0.005-0.076-0.014c-0.109-0.042-0.164-0.164-0.122-0.273
				c0.599-1.566,0.559-3.138,0.558-3.154c-0.004-0.117,0.088-0.214,0.205-0.218c0.002,0,0.004,0,0.007,0
				c0.114,0,0.208,0.09,0.211,0.205c0.002,0.067,0.044,1.67-0.586,3.318C56.546,35.588,56.466,35.639,56.381,35.639z"/>
		</g>
		<g clip-path="url(#SVGID_2_)">
			<path fill="#373636" d="M51.897,36.645c-0.013,0-0.026-0.001-0.039-0.004c-2.624-0.496-5.281-2.075-5.393-2.142
				c-0.1-0.06-0.133-0.19-0.073-0.29c0.06-0.1,0.19-0.133,0.29-0.073c0.027,0.016,2.705,1.607,5.254,2.089
				c0.115,0.022,0.19,0.132,0.169,0.247C52.085,36.574,51.997,36.645,51.897,36.645z"/>
		</g>
		<g clip-path="url(#SVGID_2_)">
			<path fill="#373636" d="M60.606,27.854c-0.081,0-0.127-0.003-0.137-0.004c-0.117-0.009-0.204-0.111-0.195-0.227
				c0.009-0.116,0.112-0.203,0.227-0.195c0.012,0,1.235,0.078,3.114-0.793c0.107-0.049,0.232-0.003,0.281,0.103
				c0.049,0.106,0.003,0.232-0.103,0.281C62.15,27.781,60.991,27.854,60.606,27.854z"/>
		</g>
		<g clip-path="url(#SVGID_2_)">
			<path fill="#373636" d="M63.99,22.433c-0.094,0-0.179-0.063-0.204-0.157c-0.793-2.992-2.782-4.856-2.802-4.875
				c-0.086-0.079-0.091-0.213-0.012-0.299c0.08-0.086,0.213-0.091,0.299-0.012c0.085,0.079,2.1,1.967,2.924,5.077
				c0.03,0.113-0.037,0.229-0.15,0.259C64.026,22.43,64.007,22.433,63.99,22.433z"/>
		</g>
		<g clip-path="url(#SVGID_2_)">
			<g>
				<path fill="#373636" d="M58.858,17.524c0.756-0.028,2.325-0.224,2.325-0.224c0.056-0.672,0.112-1.457,0.112-1.457l0-0.001
					c-1.631-2.117-3.913-3.703-6.548-4.461c-0.292,1.45-0.568,2.444-0.568,2.444C56.981,15.171,58.858,17.524,58.858,17.524z"/>
			</g>
			<g>
				<path fill="#373636" d="M40.872,18.252c0,0,0.234,1.541,1.938,4.034c0,0,1.704-0.84,4.814-1.821c0,0,0.308-2.157,1.149-4.987
					c0,0-1.429-1.009-4.146-1.261C44.626,14.218,42.693,15.143,40.872,18.252z"/>
			</g>
			<g>
				<path fill="#373636" d="M58.241,22.962c0,0-2.767,1.054-5.731,1.713c0,0-0.362,3.59-0.692,5.434c0,0,2.273,1.976,5.138,2.207
					c0,0,2.602-2.075,3.623-4.677C60.579,27.639,60.316,25.465,58.241,22.962z"/>
			</g>
			<g>
				<path fill="#373636" d="M42.135,27.771c0,0-0.823,0.56-2.338,1.021l-0.062,0.165c1.118,2.388,2.958,4.368,5.238,5.664
					c0.155-0.059,0.258-0.098,0.258-0.098s0.979-0.078,1.416-0.161c0,0-0.204-0.868-0.132-2.441
					C46.516,31.92,43.683,30.01,42.135,27.771z"/>
			</g>
		</g>
	</g>
	<g>
		<path fill="#373636" d="M51.235,36.486c-7.116,0-12.906-5.789-12.906-12.906c0-7.116,5.789-12.906,12.906-12.906
			s12.906,5.789,12.906,12.906C64.141,30.696,58.351,36.486,51.235,36.486z M51.235,11.097c-6.883,0-12.483,5.6-12.483,12.483
			s5.6,12.483,12.483,12.483c6.883,0,12.483-5.6,12.483-12.483S58.118,11.097,51.235,11.097z"/>
	</g>
</g>
<g>
	<g>
		<path fill="#373636" d="M59.619,69.995c0.824,0.824,1.589,1.661,2.301,2.5c0.086-3.207-0.694-5.366-0.694-5.366
			s-2.289-0.827-5.653-0.683C56.926,67.482,58.289,68.665,59.619,69.995z"/>
		<path fill="#373636" d="M57.901,71.713c-1.895-1.895-3.858-3.51-5.758-4.794c-2.971,0.701-6.343,2.281-9.587,5.526
			c-3.264,3.264-4.843,6.656-5.538,9.64c1.282,1.892,2.891,3.848,4.778,5.734c1.351,1.351,2.737,2.552,4.11,3.601
			c3.071-0.649,6.608-2.221,10.006-5.619c3.379-3.379,4.953-6.896,5.608-9.954C60.466,74.465,59.26,73.072,57.901,71.713z"/>
		<path fill="#373636" d="M40.077,89.537c-1.318-1.318-2.493-2.67-3.523-4.01c-0.13,3.33,0.686,5.59,0.686,5.59
			s2.132,0.77,5.306,0.695C41.716,91.107,40.89,90.35,40.077,89.537z"/>
	</g>
	<g>
		<path fill="#FFFFFF" d="M54.69,73.202l-0.46,0.46c-0.72-0.683-1.359-0.881-1.402-0.894c-0.201-0.059-0.411,0.057-0.471,0.257
			c-0.06,0.201,0.054,0.413,0.255,0.475c0.034,0.01,0.516,0.168,1.08,0.7l-0.831,0.831c-0.702-0.683-1.276-0.92-1.315-0.936
			c-0.195-0.077-0.414,0.017-0.494,0.212c-0.078,0.195,0.016,0.417,0.211,0.496c0.008,0.003,0.471,0.202,1.056,0.769l-0.795,0.795
			c-0.697-0.686-1.245-0.935-1.281-0.951c-0.192-0.084-0.417,0.002-0.501,0.195c-0.085,0.192,0.001,0.417,0.192,0.503
			c0.007,0.003,0.458,0.215,1.049,0.795l-1.025,1.025l-1.029-1.029c-0.149-0.149-0.391-0.149-0.54,0
			c-0.149,0.149-0.149,0.391,0,0.54l1.029,1.029l-0.836,0.836l-1.029-1.029c-0.149-0.149-0.391-0.149-0.54,0
			c-0.149,0.149-0.149,0.391,0,0.54l1.029,1.029l-1.024,1.024c-0.576-0.586-0.789-1.035-0.794-1.048
			c-0.085-0.192-0.31-0.279-0.502-0.194c-0.193,0.084-0.281,0.309-0.196,0.503c0.016,0.037,0.265,0.585,0.951,1.281l-0.795,0.795
			c-0.562-0.58-0.762-1.041-0.769-1.056c-0.079-0.195-0.299-0.29-0.495-0.212c-0.196,0.078-0.292,0.3-0.214,0.495
			c0.015,0.039,0.253,0.613,0.936,1.315l-0.831,0.831c-0.531-0.564-0.689-1.045-0.7-1.08c-0.06-0.201-0.271-0.316-0.472-0.257
			c-0.203,0.058-0.319,0.271-0.259,0.473c0.013,0.043,0.211,0.682,0.893,1.402l-0.46,0.46c-0.149,0.149-0.149,0.391,0,0.54
			c0.149,0.149,0.391,0.149,0.54,0l0.485-0.485c0.373,0.293,0.835,0.58,1.408,0.827c0.148,0.064,0.314,0.027,0.421-0.081
			c0.033-0.033,0.061-0.073,0.081-0.119c0.084-0.194-0.006-0.418-0.199-0.502c-0.472-0.204-0.855-0.435-1.167-0.67l0.825-0.825
			c0.36,0.293,0.798,0.591,1.33,0.868c0.152,0.079,0.332,0.046,0.446-0.069c0.027-0.027,0.05-0.058,0.069-0.094
			c0.097-0.187,0.025-0.417-0.162-0.515c-0.453-0.236-0.827-0.488-1.138-0.735l0.792-0.792c0.355,0.292,0.782,0.594,1.298,0.884
			c0.153,0.086,0.339,0.055,0.456-0.063c0.024-0.024,0.046-0.052,0.063-0.083c0.103-0.184,0.038-0.417-0.146-0.52
			c-0.447-0.251-0.818-0.51-1.129-0.761l0.997-0.997l1.029,1.029c0.149,0.149,0.391,0.149,0.54,0c0.149-0.149,0.149-0.391,0-0.54
			l-1.029-1.029l0.836-0.836l1.029,1.029c0.149,0.149,0.391,0.149,0.54,0c0.149-0.149,0.149-0.391,0-0.54l-1.029-1.029l0.998-0.998
			c0.251,0.31,0.511,0.682,0.761,1.128c0.103,0.184,0.336,0.249,0.52,0.146c0.031-0.017,0.059-0.039,0.083-0.063
			c0.118-0.118,0.148-0.304,0.063-0.456c-0.29-0.517-0.591-0.944-0.884-1.298l0.792-0.792c0.248,0.311,0.499,0.685,0.735,1.138
			c0.098,0.187,0.328,0.26,0.515,0.162c0.036-0.019,0.067-0.042,0.094-0.069c0.115-0.115,0.148-0.295,0.069-0.446
			c-0.277-0.532-0.575-0.97-0.868-1.33l0.825-0.825c0.235,0.312,0.467,0.694,0.67,1.167c0.084,0.193,0.308,0.283,0.502,0.199
			c0.046-0.02,0.085-0.047,0.119-0.081c0.107-0.107,0.144-0.273,0.081-0.421c-0.247-0.573-0.534-1.035-0.827-1.408l0.485-0.485
			c0.149-0.149,0.149-0.391,0-0.54C55.081,73.053,54.839,73.053,54.69,73.202z"/>
	</g>
</g>
</svg>
