<?xml version="1.0" encoding="utf-8"?>
<!-- Generator: Adobe Illustrator 17.0.0, SVG Export Plug-In . SVG Version: 6.00 Build 0)  -->
<!DOCTYPE svg PUBLIC "-//W3C//DTD SVG 1.1//EN" "http://www.w3.org/Graphics/SVG/1.1/DTD/svg11.dtd">
<svg version="1.1" id="Layer_1" xmlns="http://www.w3.org/2000/svg" xmlns:xlink="http://www.w3.org/1999/xlink" x="0px" y="0px"
	 width="100px" height="100px" viewBox="0 0 100 100" enable-background="new 0 0 100 100" xml:space="preserve">
<g>
	<path fill="#373636" d="M280.019,76.385v-9.672c-9.231-0.355-14.553-5.401-19.693-10.302c-2.953-2.814-5.781-5.484-9.251-7.227
		c-6.727,7.14-10.927,16.678-11.186,27.2L280.019,76.385L280.019,76.385z"/>
	<path fill="#373636" d="M280.019,88.116v-9.672h-40.13c0.259,10.522,4.459,20.06,11.186,27.2c3.471-1.742,6.299-4.412,9.251-7.227
		C265.466,93.517,270.788,88.471,280.019,88.116z"/>
	<path fill="#373636" d="M301.771,56.412c-5.141,4.9-10.462,9.946-19.693,10.302v9.672h40.13c-0.259-10.522-4.458-20.06-11.186-27.2
		C307.552,50.927,304.724,53.597,301.771,56.412z"/>
	<path fill="#373636" d="M309.495,47.648c-7.163-6.847-16.788-11.131-27.417-11.393v28.399c8.404-0.349,13.208-4.906,18.272-9.733
		C303.138,52.264,306.002,49.541,309.495,47.648z"/>
	<path fill="#373636" d="M282.078,78.444v9.672c9.231,0.355,14.552,5.401,19.693,10.302c2.952,2.814,5.781,5.484,9.251,7.227
		c6.727-7.14,10.927-16.678,11.186-27.2h-40.13V78.444z"/>
	<path fill="#373636" d="M300.35,99.908c-5.064-4.827-9.869-9.384-18.272-9.733v28.399c10.629-0.262,20.254-4.545,27.417-11.393
		C306.002,105.288,303.138,102.565,300.35,99.908z"/>
	<path fill="#373636" d="M280.019,64.654V36.255c-10.629,0.262-20.254,4.545-27.417,11.393c3.494,1.894,6.358,4.617,9.145,7.274
		C266.811,59.748,271.616,64.305,280.019,64.654z"/>
	<path fill="#373636" d="M280.019,90.175c-8.403,0.349-13.208,4.906-18.272,9.733c-2.787,2.657-5.651,5.38-9.145,7.274
		c7.163,6.847,16.788,11.131,27.417,11.392V90.175z"/>
</g>
<line fill="none" stroke="#000000" stroke-width="1.031" stroke-miterlimit="10" x1="11.237" y1="9.278" x2="92.873" y2="90.913"/>
<line fill="none" stroke="#000000" stroke-width="1.031" stroke-miterlimit="10" x1="11.237" y1="90.913" x2="92.873" y2="9.278"/>
<rect x="254.536" y="46.384" fill="#FFFFFF" width="23.549" height="19.19"/>
<rect x="285.745" y="47.585" fill="#FFFFFF" width="23.549" height="19.19"/>
<path fill="#5D5E5E" d="M242.399,64.06c0,8.535,17.765,15.455,39.679,15.455s39.679-6.919,39.679-15.455l-2.214-1.444
	c0,8.535-16.774,15.455-37.465,15.455s-37.465-6.919-37.465-15.455L242.399,64.06z"/>
<path fill="#5D5E5E" d="M242.399,73.851c0,8.535,17.765,15.455,39.679,15.455s39.679-6.919,39.679-15.455l-2.214-1.444
	c0,8.535-16.774,15.455-37.465,15.455s-37.465-6.92-37.465-15.455L242.399,73.851z"/>
<path fill="#5D5E5E" d="M242.399,82.301c0,8.535,17.765,15.455,39.679,15.455s39.679-6.919,39.679-15.455l-2.214-1.444
	c0,8.535-16.774,15.455-37.465,15.455s-37.465-6.92-37.465-15.456L242.399,82.301z"/>
<g id="TiHMz3_1_">
	<g>
		<path fill="#5D5E5E" d="M298.482,83.193c-0.091-0.285-0.129-0.469-0.206-0.636c-2.008-4.372-4.029-8.738-6.024-13.115
			c-0.325-0.714-0.876-1.004-1.59-1.143c-1.915-0.373-3.823-0.78-5.74-1.138c-0.842-0.158-1.535-0.5-2.136-1.131
			c-1.242-1.304-2.419-1.303-3.686,0.008c-0.606,0.627-1.297,0.97-2.139,1.127c-1.918,0.359-3.826,0.764-5.741,1.138
			c-0.714,0.139-1.256,0.433-1.581,1.15c-1.874,4.131-3.779,8.248-5.671,12.37c-0.191,0.417-0.366,0.841-0.567,1.306l-5.983,14.285
			c-2.845-0.559-5.684-1.143-8.511-1.781c-3.509-0.792-6.468-2.848-9.527-4.644c-2.948-1.731-5.388-3.97-7.212-6.876
			c-0.531-0.846-0.704-1.721-0.472-2.678c2.499-10.32,6.035-20.232,11.585-29.343c4.873-7.999,10.949-14.881,18.921-19.929
			c5.798-3.672,12.164-5.552,19.425-5.747c7.036,0.341,13.787,2.657,19.857,6.914c7.568,5.307,13.363,12.217,17.977,20.166
			c5.084,8.758,8.388,18.203,10.775,28.001c0.223,0.915,0.03,1.733-0.451,2.52c-1.637,2.681-3.811,4.826-6.47,6.48
			c-1.238,0.77-2.516,1.474-3.749,2.252c-4.02,2.538-8.551,3.551-13.129,4.418c-0.691,0.131-1.384,0.257-2.076,0.381L298.482,83.193
			z M262.231,57.063c-1.419-0.058-2.258,0.413-3.026,1.093c-0.383,0.339-0.393,0.623-0.138,1.057
			c1.113,1.897,2.186,3.817,3.282,5.724c0.636,1.107,0.807,1.185,2.037,0.915c3.328-0.731,6.654-1.468,9.979-2.208
			c1.668-0.371,1.805-0.53,1.973-2.206c0.022-0.219-0.006-0.447,0.045-0.657c0.15-0.622-0.169-0.803-0.713-0.912
			c-3.233-0.647-6.461-1.315-9.689-1.987C264.612,57.598,263.25,57.287,262.231,57.063z M300.275,57.012
			c-0.518,0.049-0.796,0.048-1.063,0.104c-3.918,0.83-7.835,1.663-11.751,2.503c-2.172,0.466-2.168,0.471-1.77,2.65
			c0.12,0.655,0.429,1.086,1.135,1.228c1.291,0.26,2.57,0.579,3.856,0.863c2.304,0.509,4.608,1.019,6.916,1.512
			c1.141,0.243,1.351,0.14,1.926-0.861c0.971-1.69,1.938-3.383,2.899-5.08c0.803-1.417,0.689-1.82-0.805-2.527
			C301.134,57.178,300.581,57.099,300.275,57.012z"/>
	</g>
</g>
<g>
	<path fill="none" d="M301.617,57.406c-0.483-0.228-1.036-0.308-1.342-0.394c-0.517,0.049-0.796,0.048-1.063,0.104
		c-3.918,0.829-7.835,1.663-11.751,2.503c-2.172,0.466-2.168,0.472-1.77,2.65c0.12,0.655,0.429,1.086,1.135,1.228
		c1.291,0.26,2.57,0.579,3.856,0.863c2.304,0.509,4.608,1.019,6.916,1.512c1.141,0.243,1.351,0.14,1.926-0.861
		c0.971-1.69,1.938-3.383,2.899-5.08C303.225,58.516,303.111,58.113,301.617,57.406z"/>
	<path fill="none" d="M264.385,65.852c1.874-0.411,3.747-0.829,5.62-1.244c0.693-0.154,1.386-0.306,2.079-0.46
		c0.76-0.169,1.52-0.335,2.28-0.505c1.668-0.371,1.805-0.53,1.973-2.206c0.022-0.219-0.006-0.447,0.045-0.657
		c0.15-0.622-0.169-0.803-0.713-0.911c-2.53-0.507-5.057-1.031-7.584-1.555c-0.701-0.145-1.404-0.286-2.105-0.432
		c-1.368-0.285-2.73-0.596-3.749-0.819c-1.419-0.058-2.258,0.413-3.026,1.093c-0.383,0.339-0.393,0.623-0.139,1.057
		c0.822,1.401,1.621,2.817,2.425,4.229c0.284,0.499,0.571,0.997,0.857,1.495C262.984,66.044,263.154,66.122,264.385,65.852z"/>
	<path fill="none" d="M319.088,91.012c-0.402,0.936-0.841,1.857-1.328,2.751c0.611-0.311,1.215-0.642,1.805-1.015
		c1.121-0.708,2.278-1.358,3.41-2.049c-1.608,0.272-2.777,0.325-3.412,0.325C319.31,91.024,319.168,91.017,319.088,91.012z"/>
	<path fill="none" d="M239.38,90.987c0.889,0.522,1.77,1.064,2.658,1.592c1.286-0.591,2.232-1.107,2.818-1.45
		c-0.071-0.114-0.124-0.239-0.134-0.382c-0.752-11.339,2.68-22.11,2.826-22.563c0.037-0.114,0.096-0.213,0.17-0.297
		c-3.66-5.506-5.503-9.775-6.398-12.391c-4.062,7.456-6.898,15.401-9.031,23.622c0.243,2.329,0.652,4.609,1.204,6.833
		C235.119,87.982,237.091,89.643,239.38,90.987z"/>
	<path fill="none" d="M264.385,65.852c-1.231,0.27-1.401,0.192-2.037-0.915c-0.286-0.498-0.573-0.996-0.857-1.495
		c-6.399,2.235-10.59,4.065-12.312,4.855c0.024,0.133,0.028,0.27-0.017,0.408c-0.035,0.108-3.478,10.925-2.748,21.929
		c0.02,0.3-0.129,0.562-0.354,0.728c1.114,1.537,2.358,3.03,3.67,4.447c2.555,0.567,5.119,1.099,7.689,1.603l5.983-14.285
		c0.201-0.465,0.375-0.89,0.567-1.306c1.892-4.123,3.797-8.239,5.671-12.37c0.326-0.718,0.867-1.011,1.581-1.15
		c0.844-0.165,1.686-0.336,2.529-0.506c-1.48-1.266-2.73-2.329-3.744-3.186C268.132,65.024,266.259,65.441,264.385,65.852z"/>
	<path fill="none" d="M271.38,40.968c0.025-0.021,0.041-0.05,0.069-0.068c0.311-0.204,7.745-4.978,22.605-6.953
		c0.226-0.866,0.596-2.336,1.036-4.254c-4.289-1.942-8.811-3.05-13.463-3.276c-7.261,0.195-13.626,2.075-19.425,5.747
		c-2.062,1.306-3.992,2.739-5.812,4.277c-0.001,0.019-0.002,0.036-0.003,0.054C264.474,37.383,269.554,39.906,271.38,40.968z"/>
	<path fill="none" d="M311.705,49.521c-0.019-0.242,0.069-0.465,0.219-0.632c-1.925-2.218-8.188-8.932-16.887-13.437
		c-0.096,0.057-0.205,0.097-0.324,0.112c-14.781,1.887-22.261,6.704-22.335,6.752c-0.143,0.094-0.305,0.139-0.464,0.139
		c-0.015,0-0.029-0.01-0.044-0.011c-1.975,6.805-3.171,12.54-3.785,15.87c2.527,0.524,5.053,1.049,7.584,1.555
		c0.544,0.109,0.863,0.29,0.713,0.911c-0.051,0.21-0.023,0.439-0.045,0.657c-0.169,1.676-0.305,1.834-1.973,2.206
		c-0.76,0.169-1.52,0.336-2.28,0.505c1.065,0.904,2.328,1.98,3.783,3.229c0.365-0.071,0.729-0.146,1.094-0.215
		c0.842-0.157,1.533-0.5,2.139-1.127c1.267-1.311,2.444-1.311,3.686-0.008c0.601,0.631,1.294,0.974,2.136,1.131
		c1.917,0.359,3.825,0.766,5.74,1.138c0.714,0.139,1.264,0.429,1.59,1.143c1.029,2.258,2.07,4.51,3.107,6.764
		c6.446-1.81,11.741-3.681,13.795-4.431C312.249,57.015,311.711,49.595,311.705,49.521z M299.523,65.013
		c-0.575,1-0.785,1.104-1.926,0.861c-2.308-0.492-4.612-1.003-6.916-1.512c-1.286-0.284-2.565-0.603-3.856-0.863
		c-0.706-0.142-1.015-0.573-1.135-1.228c-0.398-2.179-0.402-2.184,1.77-2.65c3.916-0.84,7.833-1.674,11.751-2.503
		c0.267-0.056,0.545-0.056,1.063-0.104c0.306,0.087,0.86,0.166,1.342,0.394c1.494,0.707,1.607,1.11,0.805,2.527
		C301.461,61.629,300.495,63.322,299.523,65.013z"/>
	<path fill="none" d="M310.81,72.135c-0.01,0.049-0.036,0.089-0.054,0.134c6.232,7.84,8.084,14.729,8.554,17.053
		c0.629,0.014,3.17-0.012,7.047-1.171c1.312-1.209,2.472-2.571,3.428-4.136c0.481-0.787,0.673-1.605,0.451-2.52
		c-2.387-9.798-5.691-19.242-10.774-28.001c-0.833-1.434-1.719-2.822-2.631-4.185c-1.193,0.119-2.405,0.226-3.42,0.288
		C313.483,50.897,313.724,58.252,310.81,72.135z"/>
	<path fill="#373636" d="M256.39,36.44c-0.018,0.016-0.036,0.033-0.054,0.048c0.017,0.002,0.034,0.004,0.051,0.006
		C256.389,36.477,256.389,36.459,256.39,36.44z"/>
	<path fill="#373636" d="M272.379,42.317c0.074-0.048,7.554-4.865,22.335-6.752c0.118-0.015,0.227-0.055,0.324-0.112
		c-0.405-0.21-0.804-0.424-1.218-0.623c0,0,0.087-0.316,0.235-0.882c-14.86,1.975-22.294,6.749-22.605,6.953
		c-0.028,0.019-0.044,0.047-0.069,0.068c0.507,0.295,0.779,0.482,0.779,0.482c-0.1,0.337-0.192,0.663-0.288,0.995
		c0.015,0.001,0.029,0.011,0.044,0.011C272.074,42.456,272.235,42.411,272.379,42.317z"/>
	<path fill="#373636" d="M311.705,49.521c0.006,0.074,0.544,7.494-2.552,22.253c0.592-0.216,0.935-0.346,0.935-0.346
		c0.235,0.283,0.444,0.561,0.667,0.843c0.018-0.045,0.044-0.085,0.054-0.134c2.914-13.884,2.673-21.238,2.599-22.536
		c-0.3,0.018-0.588,0.034-0.847,0.044c0,0-0.23-0.285-0.637-0.754C311.774,49.056,311.686,49.279,311.705,49.521z"/>
	<path fill="#373636" d="M270.005,64.609c1.014,0.857,2.264,1.92,3.744,3.186c0.706-0.143,1.412-0.279,2.119-0.417
		c-1.455-1.249-2.718-2.325-3.783-3.229C271.391,64.302,270.698,64.455,270.005,64.609z"/>
	<path fill="#373636" d="M246.06,91.363c0.225-0.166,0.374-0.428,0.354-0.728c-0.73-11.005,2.713-21.821,2.748-21.929
		c0.044-0.138,0.041-0.275,0.017-0.408c-0.588,0.27-0.905,0.425-0.905,0.425c-0.195-0.285-0.369-0.557-0.554-0.836
		c-0.074,0.084-0.134,0.184-0.17,0.297c-0.147,0.453-3.579,11.225-2.826,22.563c0.01,0.143,0.063,0.268,0.134,0.382
		c0.466-0.273,0.712-0.439,0.712-0.439C245.725,90.917,245.897,91.138,246.06,91.363z"/>
	<path fill="#373636" d="M319.31,89.323c0.11,0.541,0.147,0.84,0.147,0.84c-0.113,0.287-0.247,0.565-0.369,0.849
		c0.079,0.005,0.222,0.012,0.476,0.012c0.635,0,1.804-0.053,3.412-0.325c0.112-0.068,0.227-0.133,0.339-0.203
		c1.107-0.688,2.108-1.482,3.042-2.344C322.48,89.311,319.939,89.338,319.31,89.323z"/>
	<path fill="#373636" d="M293.819,34.828c0.415,0.199,0.814,0.414,1.218,0.623c8.699,4.505,14.962,11.219,16.887,13.437
		c0.407,0.469,0.637,0.754,0.637,0.754c0.258-0.01,0.547-0.025,0.847-0.044c1.015-0.063,2.228-0.169,3.42-0.288
		c-4.146-6.192-9.143-11.632-15.345-15.981c-2.056-1.442-4.196-2.642-6.394-3.638c-0.44,1.919-0.811,3.388-1.036,4.254
		C293.906,34.513,293.819,34.828,293.819,34.828z"/>
	<path fill="#373636" d="M248.273,68.722c0,0,0.317-0.155,0.905-0.425c1.723-0.79,5.914-2.621,12.312-4.855
		c-0.804-1.412-1.603-2.827-2.425-4.229c-0.255-0.434-0.245-0.719,0.139-1.057c0.769-0.68,1.607-1.15,3.026-1.093
		c1.019,0.223,2.381,0.535,3.749,0.819c0.701,0.146,1.404,0.286,2.105,0.432c0.614-3.329,1.81-9.064,3.785-15.87
		c0.096-0.332,0.188-0.658,0.288-0.995c0,0-0.272-0.188-0.779-0.482c-1.826-1.061-6.906-3.585-14.992-4.474
		c-0.017-0.002-0.034-0.004-0.051-0.006c-5.192,4.401-9.455,9.694-13.055,15.603c-0.684,1.122-1.336,2.257-1.96,3.403
		c0.895,2.617,2.737,6.885,6.398,12.391C247.904,68.166,248.078,68.437,248.273,68.722z"/>
	<path fill="#373636" d="M319.457,90.163c0,0-0.037-0.299-0.147-0.84c-0.47-2.324-2.323-9.214-8.554-17.053
		c-0.224-0.281-0.432-0.559-0.667-0.843c0,0-0.343,0.13-0.935,0.346c-2.054,0.75-7.349,2.621-13.795,4.431
		c0.974,2.116,1.945,4.234,2.917,6.351c0.077,0.167,0.115,0.352,0.206,0.637l5.878,14.354c0.693-0.124,1.385-0.25,2.076-0.381
		c3.906-0.74,7.775-1.594,11.324-3.403c0.487-0.894,0.925-1.815,1.328-2.751C319.21,90.729,319.344,90.45,319.457,90.163z"/>
	<path fill="#373636" d="M245.568,90.691c0,0-0.246,0.166-0.712,0.439c-0.586,0.343-1.532,0.859-2.818,1.45
		c2.168,1.29,4.379,2.49,6.869,3.052c0.273,0.062,0.549,0.117,0.822,0.178c-1.311-1.416-2.556-2.909-3.67-4.447
		C245.897,91.138,245.725,90.917,245.568,90.691z"/>
	<path fill="#373636" d="M233.493,85.951c-0.552-2.224-0.961-4.503-1.204-6.833c-0.2,0.771-0.406,1.539-0.594,2.315
		c-0.232,0.957-0.059,1.832,0.472,2.678C232.576,84.761,233.025,85.366,233.493,85.951z"/>
</g>
<g>
	<g>
		<g>
			<path fill="#373636" d="M22.904,62.435c-7.337,0-13.307-5.969-13.307-13.307c0-7.337,5.969-13.307,13.307-13.307
				c7.337,0,13.307,5.969,13.307,13.307C36.211,56.466,30.241,62.435,22.904,62.435z M22.904,36.259
				c-7.097,0-12.87,5.774-12.87,12.87S15.808,62,22.904,62s12.87-5.774,12.87-12.87S30.001,36.259,22.904,36.259z"/>
		</g>
		<g>
			<path fill="#373636" d="M22.904,62.435c-7.337,0-13.307-5.969-13.307-13.307c0-7.337,5.969-13.307,13.307-13.307
				c7.337,0,13.307,5.969,13.307,13.307C36.211,56.466,30.241,62.435,22.904,62.435z M22.904,36.259
				c-7.097,0-12.87,5.774-12.87,12.87S15.808,62,22.904,62s12.87-5.774,12.87-12.87S30.001,36.259,22.904,36.259z"/>
		</g>
		<g>
			<g>
				<path fill="#373636" d="M13.571,58.522c-0.075,0-0.147-0.038-0.189-0.107c-0.061-0.104-0.026-0.237,0.077-0.299
					c3.177-1.864,5.149-5.308,5.149-8.988c0-3.679-1.973-7.122-5.15-8.988c-0.104-0.061-0.138-0.195-0.077-0.299
					c0.061-0.104,0.195-0.138,0.299-0.077c3.31,1.942,5.364,5.53,5.364,9.363c0,3.833-2.056,7.42-5.364,9.363
					C13.647,58.513,13.61,58.522,13.571,58.522z"/>
			</g>
			<g>
				<path fill="#373636" d="M13.088,41.51c-0.055,0-0.11-0.021-0.153-0.062c-0.087-0.085-0.088-0.223-0.004-0.308l1.726-1.766
					c0.085-0.087,0.223-0.088,0.308-0.004c0.087,0.085,0.088,0.223,0.004,0.308l-1.726,1.766C13.2,41.487,13.144,41.51,13.088,41.51
					z"/>
			</g>
			<g>
				<path fill="#373636" d="M13.766,41.918c-0.057,0-0.113-0.022-0.156-0.066c-0.085-0.087-0.082-0.224,0.003-0.308l1.765-1.728
					c0.086-0.085,0.224-0.082,0.308,0.003c0.085,0.087,0.082,0.224-0.003,0.308l-1.765,1.728
					C13.877,41.897,13.821,41.918,13.766,41.918z"/>
			</g>
			<g>
				<path fill="#373636" d="M14.419,42.384c-0.058,0-0.114-0.023-0.158-0.067c-0.084-0.087-0.08-0.225,0.007-0.308l1.786-1.706
					c0.087-0.084,0.225-0.08,0.308,0.007s0.08,0.225-0.007,0.308l-1.786,1.706C14.527,42.364,14.473,42.384,14.419,42.384z"/>
			</g>
			<g>
				<path fill="#373636" d="M15.097,42.956c-0.059,0-0.117-0.024-0.16-0.069c-0.082-0.089-0.077-0.226,0.011-0.308l1.807-1.684
					c0.089-0.082,0.226-0.077,0.308,0.011c0.082,0.089,0.077,0.226-0.011,0.308l-1.807,1.684
					C15.204,42.937,15.151,42.956,15.097,42.956z"/>
			</g>
			<g>
				<path fill="#373636" d="M15.785,43.773c-0.061,0-0.122-0.026-0.165-0.075c-0.079-0.091-0.069-0.229,0.022-0.308l1.864-1.621
					c0.091-0.079,0.229-0.069,0.308,0.022s0.069,0.229-0.022,0.308l-1.864,1.621C15.886,43.755,15.836,43.773,15.785,43.773z"/>
			</g>
			<g>
				<path fill="#373636" d="M16.248,44.552c-0.07,0-0.139-0.034-0.181-0.097c-0.067-0.1-0.04-0.235,0.06-0.303l2.052-1.376
					c0.1-0.067,0.235-0.04,0.303,0.06c0.067,0.1,0.04,0.235-0.06,0.303l-2.052,1.376C16.333,44.541,16.29,44.552,16.248,44.552z"/>
			</g>
			<g>
				<path fill="#373636" d="M16.714,45.346c-0.078,0-0.154-0.042-0.193-0.115c-0.057-0.106-0.016-0.238,0.09-0.295l2.181-1.16
					c0.106-0.057,0.238-0.016,0.295,0.09s0.016,0.238-0.09,0.295l-2.181,1.16C16.783,45.338,16.748,45.346,16.714,45.346z"/>
			</g>
			<g>
				<path fill="#373636" d="M17.02,46.131c-0.088,0-0.171-0.054-0.204-0.141c-0.042-0.112,0.014-0.238,0.127-0.281l2.311-0.874
					c0.113-0.042,0.238,0.014,0.281,0.127c0.042,0.112-0.014,0.238-0.127,0.281l-2.311,0.874
					C17.072,46.127,17.046,46.131,17.02,46.131z"/>
			</g>
			<g>
				<path fill="#373636" d="M17.205,46.903c-0.101,0-0.192-0.07-0.213-0.173c-0.025-0.118,0.051-0.234,0.169-0.259l2.418-0.508
					c0.118-0.025,0.233,0.051,0.259,0.168c0.025,0.118-0.051,0.234-0.168,0.259l-2.418,0.508
					C17.235,46.901,17.22,46.903,17.205,46.903z"/>
			</g>
			<g>
				<path fill="#373636" d="M17.395,47.728c-0.112,0-0.208-0.087-0.218-0.201c-0.009-0.121,0.079-0.225,0.2-0.235l2.462-0.197
					c0.121-0.011,0.225,0.079,0.235,0.2c0.009,0.121-0.079,0.225-0.2,0.235l-2.462,0.197C17.407,47.728,17.401,47.728,17.395,47.728
					z"/>
			</g>
			<g>
				<path fill="#373636" d="M17.474,48.789c-0.112,0-0.208-0.087-0.218-0.201c-0.009-0.12,0.079-0.225,0.2-0.235l2.462-0.197
					c0.119-0.012,0.225,0.079,0.235,0.2c0.009,0.12-0.079,0.225-0.2,0.235l-2.462,0.197C17.486,48.789,17.48,48.789,17.474,48.789z"
					/>
			</g>
			<g>
				<path fill="#373636" d="M19.94,49.706c-0.001,0-0.001,0-0.002,0l-2.47-0.018c-0.121-0.001-0.218-0.099-0.217-0.22
					c0.001-0.121,0.104-0.225,0.22-0.217l2.47,0.018c0.121,0.001,0.218,0.099,0.217,0.22C20.158,49.61,20.061,49.706,19.94,49.706z"
					/>
			</g>
			<g>
				<path fill="#373636" d="M19.857,50.834c-0.006,0-0.012,0-0.019-0.001l-2.461-0.205c-0.121-0.01-0.209-0.115-0.199-0.235
					c0.01-0.121,0.115-0.211,0.235-0.199l2.462,0.205c0.121,0.01,0.209,0.115,0.199,0.235
					C20.065,50.748,19.969,50.834,19.857,50.834z"/>
			</g>
			<g>
				<path fill="#373636" d="M19.661,51.958c-0.011,0-0.023-0.001-0.034-0.003l-2.44-0.385c-0.119-0.019-0.2-0.13-0.181-0.25
					c0.019-0.119,0.131-0.2,0.25-0.181l2.44,0.385c0.119,0.019,0.2,0.13,0.181,0.25C19.859,51.881,19.766,51.958,19.661,51.958z"/>
			</g>
			<g>
				<path fill="#373636" d="M19.503,53.033c-0.019,0-0.037-0.002-0.056-0.007l-2.39-0.625c-0.117-0.03-0.187-0.149-0.156-0.266
					c0.03-0.117,0.148-0.188,0.266-0.156l2.39,0.625c0.117,0.03,0.187,0.15,0.156,0.266C19.689,52.968,19.6,53.033,19.503,53.033z"
					/>
			</g>
			<g>
				<path fill="#373636" d="M18.908,54.054c-0.026,0-0.052-0.004-0.076-0.014l-2.314-0.865c-0.112-0.042-0.17-0.168-0.128-0.28
					s0.168-0.17,0.28-0.128l2.314,0.865c0.112,0.042,0.17,0.168,0.128,0.28C19.079,54.001,18.996,54.054,18.908,54.054z"/>
			</g>
			<g>
				<path fill="#373636" d="M18.459,55.336c-0.036,0-0.072-0.009-0.106-0.028l-2.158-1.201c-0.105-0.059-0.143-0.192-0.085-0.297
					c0.059-0.105,0.192-0.143,0.297-0.085l2.158,1.201c0.105,0.059,0.143,0.192,0.085,0.297
					C18.61,55.296,18.536,55.336,18.459,55.336z"/>
			</g>
			<g>
				<path fill="#373636" d="M17.765,56.493c-0.053,0-0.105-0.019-0.146-0.057l-1.829-1.66c-0.09-0.081-0.096-0.219-0.015-0.308
					c0.08-0.09,0.219-0.096,0.308-0.015l1.829,1.66c0.09,0.081,0.096,0.219,0.015,0.308C17.883,56.469,17.823,56.493,17.765,56.493z
					"/>
			</g>
			<g>
				<path fill="#373636" d="M17.013,57.324c-0.06,0-0.12-0.025-0.162-0.072l-1.653-1.835c-0.08-0.09-0.073-0.228,0.016-0.308
					c0.09-0.08,0.228-0.073,0.308,0.016l1.653,1.835c0.08,0.09,0.073,0.228-0.016,0.308C17.117,57.305,17.066,57.324,17.013,57.324z
					"/>
			</g>
			<g>
				<path fill="#373636" d="M16.089,58.194c-0.069,0-0.138-0.033-0.18-0.095l-1.396-2.038c-0.068-0.099-0.042-0.235,0.057-0.303
					c0.099-0.068,0.235-0.042,0.303,0.057l1.396,2.038c0.068,0.099,0.042,0.235-0.057,0.303
					C16.175,58.182,16.132,58.194,16.089,58.194z"/>
			</g>
			<g>
				<path fill="#373636" d="M15.384,58.804c-0.067,0-0.133-0.031-0.175-0.089L13.74,56.73c-0.072-0.097-0.052-0.233,0.045-0.305
					c0.097-0.072,0.233-0.052,0.305,0.045l1.469,1.986c0.072,0.097,0.052,0.233-0.045,0.305
					C15.474,58.79,15.428,58.804,15.384,58.804z"/>
			</g>
			<g>
				<path fill="#373636" d="M14.812,59.127c-0.06,0-0.12-0.025-0.162-0.072l-1.651-1.837c-0.08-0.09-0.073-0.228,0.016-0.308
					c0.09-0.08,0.228-0.073,0.308,0.016l1.651,1.837c0.08,0.09,0.073,0.228-0.016,0.308C14.916,59.108,14.863,59.127,14.812,59.127z
					"/>
			</g>
		</g>
		<g>
			<g>
				<path fill="#373636" d="M32.14,58.522c-0.037,0-0.075-0.009-0.11-0.03c-3.31-1.942-5.365-5.53-5.365-9.363
					c0-3.833,2.056-7.42,5.365-9.363c0.104-0.061,0.237-0.027,0.299,0.077c0.061,0.104,0.026,0.237-0.077,0.299
					c-3.177,1.864-5.15,5.309-5.15,8.988c0,3.679,1.973,7.122,5.15,8.988c0.104,0.061,0.138,0.195,0.077,0.299
					C32.289,58.484,32.216,58.522,32.14,58.522z"/>
			</g>
			<g>
				<path fill="#373636" d="M32.625,41.51c-0.057,0-0.113-0.022-0.156-0.066l-1.727-1.766c-0.085-0.086-0.082-0.224,0.004-0.308
					c0.087-0.085,0.224-0.082,0.308,0.004l1.727,1.766c0.085,0.086,0.082,0.224-0.004,0.308C32.735,41.489,32.68,41.51,32.625,41.51
					z"/>
			</g>
			<g>
				<path fill="#373636" d="M31.946,41.918c-0.055,0-0.11-0.021-0.153-0.062l-1.765-1.728c-0.086-0.085-0.088-0.223-0.003-0.308
					c0.085-0.086,0.223-0.088,0.308-0.003l1.765,1.728c0.086,0.085,0.088,0.223,0.003,0.308
					C32.059,41.895,32.002,41.918,31.946,41.918z"/>
			</g>
			<g>
				<path fill="#373636" d="M31.294,42.384c-0.055,0-0.108-0.02-0.151-0.061l-1.786-1.706c-0.088-0.084-0.091-0.222-0.007-0.308
					c0.084-0.087,0.222-0.09,0.308-0.007l1.786,1.706c0.088,0.084,0.091,0.222,0.007,0.308
					C31.408,42.361,31.351,42.384,31.294,42.384z"/>
			</g>
			<g>
				<path fill="#373636" d="M30.615,42.956c-0.054,0-0.106-0.02-0.148-0.059l-1.807-1.684c-0.089-0.082-0.093-0.221-0.011-0.308
					c0.082-0.088,0.221-0.093,0.308-0.011l1.807,1.684c0.089,0.082,0.093,0.221,0.011,0.308
					C30.732,42.933,30.673,42.956,30.615,42.956z"/>
			</g>
			<g>
				<path fill="#373636" d="M29.928,43.773c-0.051,0-0.102-0.018-0.143-0.054l-1.864-1.621c-0.091-0.079-0.101-0.217-0.022-0.308
					c0.079-0.091,0.217-0.101,0.308-0.022l1.864,1.621c0.091,0.079,0.101,0.217,0.022,0.308
					C30.05,43.748,29.989,43.773,29.928,43.773z"/>
			</g>
			<g>
				<path fill="#373636" d="M29.464,44.552c-0.041,0-0.085-0.012-0.122-0.037l-2.051-1.376c-0.1-0.067-0.127-0.203-0.06-0.303
					c0.067-0.1,0.203-0.127,0.303-0.06l2.051,1.376c0.1,0.067,0.127,0.203,0.06,0.303C29.603,44.518,29.534,44.552,29.464,44.552z"
					/>
			</g>
			<g>
				<path fill="#373636" d="M28.999,45.346c-0.034,0-0.069-0.008-0.102-0.026l-2.181-1.16c-0.106-0.057-0.146-0.189-0.09-0.295
					s0.189-0.146,0.295-0.09l2.181,1.16c0.106,0.057,0.146,0.189,0.09,0.295C29.153,45.304,29.076,45.346,28.999,45.346z"/>
			</g>
			<g>
				<path fill="#373636" d="M28.692,46.131c-0.026,0-0.052-0.004-0.077-0.014l-2.311-0.874c-0.112-0.042-0.169-0.169-0.127-0.281
					c0.042-0.112,0.169-0.169,0.281-0.127l2.311,0.874c0.112,0.042,0.169,0.169,0.127,0.281
					C28.863,46.077,28.78,46.131,28.692,46.131z"/>
			</g>
			<g>
				<path fill="#373636" d="M28.507,46.903c-0.014,0-0.03-0.001-0.045-0.005l-2.418-0.508c-0.118-0.025-0.194-0.14-0.168-0.259
					c0.025-0.118,0.14-0.194,0.259-0.168l2.418,0.508c0.118,0.025,0.194,0.14,0.169,0.259
					C28.699,46.832,28.608,46.903,28.507,46.903z"/>
			</g>
			<g>
				<path fill="#373636" d="M28.317,47.728c-0.006,0-0.011,0-0.018-0.001l-2.462-0.197c-0.12-0.009-0.209-0.114-0.2-0.235
					c0.009-0.12,0.113-0.211,0.235-0.2l2.462,0.197c0.12,0.009,0.209,0.114,0.2,0.235C28.526,47.641,28.43,47.728,28.317,47.728z"/>
			</g>
			<g>
				<path fill="#373636" d="M28.238,48.789c-0.006,0-0.011,0-0.018-0.001l-2.462-0.197c-0.121-0.009-0.209-0.114-0.2-0.235
					c0.009-0.121,0.115-0.212,0.235-0.2l2.462,0.197c0.121,0.009,0.209,0.114,0.2,0.235C28.446,48.702,28.35,48.789,28.238,48.789z"
					/>
			</g>
			<g>
				<path fill="#373636" d="M25.772,49.706c-0.12,0-0.218-0.097-0.219-0.217c-0.001-0.121,0.096-0.219,0.217-0.22l2.47-0.018
					c0.001,0,0.001,0,0.002,0c0.12,0,0.218,0.097,0.219,0.217c0.001,0.121-0.096,0.219-0.217,0.22l-2.47,0.018
					C25.773,49.706,25.772,49.706,25.772,49.706z"/>
			</g>
			<g>
				<path fill="#373636" d="M25.855,50.834c-0.112,0-0.207-0.086-0.218-0.2c-0.01-0.12,0.079-0.226,0.199-0.235l2.461-0.205
					c0.12-0.011,0.226,0.079,0.235,0.199c0.01,0.12-0.079,0.226-0.199,0.235l-2.461,0.205
					C25.868,50.834,25.861,50.834,25.855,50.834z"/>
			</g>
			<g>
				<path fill="#373636" d="M26.051,51.958c-0.105,0-0.198-0.076-0.215-0.185c-0.019-0.119,0.063-0.231,0.181-0.25l2.44-0.385
					c0.119-0.019,0.231,0.063,0.25,0.181c0.019,0.119-0.063,0.231-0.181,0.25l-2.44,0.385
					C26.074,51.957,26.063,51.958,26.051,51.958z"/>
			</g>
			<g>
				<path fill="#373636" d="M26.209,53.033c-0.097,0-0.186-0.065-0.211-0.163c-0.031-0.117,0.039-0.236,0.156-0.266l2.39-0.625
					c0.117-0.031,0.236,0.039,0.266,0.156c0.031,0.117-0.039,0.236-0.156,0.266l-2.39,0.625
					C26.246,53.031,26.227,53.033,26.209,53.033z"/>
			</g>
			<g>
				<path fill="#373636" d="M26.805,54.054c-0.089,0-0.171-0.055-0.204-0.142c-0.042-0.112,0.015-0.238,0.128-0.28l2.314-0.865
					c0.113-0.042,0.238,0.015,0.28,0.128c0.042,0.113-0.015,0.238-0.128,0.28l-2.314,0.865C26.855,54.05,26.83,54.054,26.805,54.054
					z"/>
			</g>
			<g>
				<path fill="#373636" d="M27.253,55.336c-0.076,0-0.151-0.04-0.191-0.112c-0.059-0.105-0.021-0.238,0.085-0.297l2.158-1.201
					c0.105-0.059,0.238-0.021,0.297,0.085c0.059,0.105,0.021,0.238-0.085,0.297l-2.158,1.201
					C27.326,55.328,27.289,55.336,27.253,55.336z"/>
			</g>
			<g>
				<path fill="#373636" d="M27.948,56.493c-0.06,0-0.119-0.024-0.162-0.071c-0.081-0.09-0.074-0.227,0.015-0.308l1.83-1.66
					c0.09-0.081,0.228-0.074,0.308,0.015c0.081,0.09,0.074,0.227-0.015,0.308l-1.83,1.66C28.052,56.474,28,56.493,27.948,56.493z"/>
			</g>
			<g>
				<path fill="#373636" d="M28.699,57.324c-0.052,0-0.104-0.019-0.145-0.056c-0.09-0.08-0.097-0.219-0.016-0.308l1.653-1.835
					c0.08-0.09,0.219-0.097,0.308-0.016c0.09,0.08,0.097,0.219,0.016,0.308l-1.653,1.835C28.818,57.299,28.759,57.324,28.699,57.324
					z"/>
			</g>
			<g>
				<path fill="#373636" d="M29.623,58.194c-0.042,0-0.086-0.012-0.123-0.038c-0.099-0.068-0.125-0.204-0.057-0.303l1.396-2.038
					c0.068-0.099,0.204-0.125,0.303-0.057c0.099,0.068,0.125,0.204,0.057,0.303l-1.396,2.038
					C29.761,58.161,29.693,58.194,29.623,58.194z"/>
			</g>
			<g>
				<path fill="#373636" d="M30.329,58.804c-0.045,0-0.091-0.014-0.13-0.043c-0.097-0.071-0.118-0.208-0.045-0.305l1.469-1.986
					c0.072-0.097,0.208-0.118,0.305-0.045c0.097,0.071,0.118,0.208,0.045,0.305l-1.469,1.986
					C30.462,58.773,30.396,58.804,30.329,58.804z"/>
			</g>
			<g>
				<path fill="#373636" d="M30.901,59.127c-0.052,0-0.104-0.019-0.145-0.056c-0.09-0.08-0.097-0.219-0.016-0.308l1.651-1.837
					c0.08-0.09,0.219-0.097,0.308-0.016c0.09,0.08,0.097,0.219,0.016,0.308l-1.651,1.837C31.02,59.103,30.96,59.127,30.901,59.127z"
					/>
			</g>
		</g>
	</g>
	<g>
		<g>
			<g>
				<defs>
					<circle id="SVGID_1_" cx="51.88" cy="22.053" r="13.258"/>
				</defs>
				<clipPath id="SVGID_2_">
					<use xlink:href="#SVGID_1_"  overflow="visible"/>
				</clipPath>
				<g clip-path="url(#SVGID_2_)">
					<path fill="#373636" d="M44.971,12.627c-0.002,0-0.004,0-0.007,0c-0.122-0.004-0.218-0.106-0.214-0.228
						c0.002-0.07,0.057-1.721,0.493-2.556c0.056-0.108,0.19-0.151,0.298-0.094c0.108,0.056,0.15,0.19,0.094,0.298
						c-0.388,0.745-0.442,2.349-0.443,2.365C45.188,12.532,45.09,12.627,44.971,12.627z"/>
				</g>
			</g>
			<g>
				<defs>
					<circle id="SVGID_3_" cx="51.88" cy="22.053" r="13.258"/>
				</defs>
				<clipPath id="SVGID_4_">
					<use xlink:href="#SVGID_3_"  overflow="visible"/>
				</clipPath>
				<g clip-path="url(#SVGID_4_)">
					<path fill="#373636" d="M39.322,17.282c-0.078,0-0.153-0.041-0.193-0.113c-0.059-0.106-0.021-0.241,0.085-0.3
						c0.741-0.414,1.817-0.6,1.863-0.608c0.121-0.02,0.234,0.06,0.255,0.18c0.021,0.12-0.06,0.234-0.18,0.255
						c-0.01,0.001-1.048,0.182-1.722,0.558C39.396,17.274,39.359,17.282,39.322,17.282z"/>
				</g>
			</g>
			<g>
				<defs>
					<circle id="SVGID_5_" cx="51.88" cy="22.053" r="13.258"/>
				</defs>
				<clipPath id="SVGID_6_">
					<use xlink:href="#SVGID_5_"  overflow="visible"/>
				</clipPath>
				<g clip-path="url(#SVGID_6_)">
					<path fill="#373636" d="M49.245,13.855c-0.072,0-0.142-0.035-0.185-0.1c-0.067-0.102-0.039-0.239,0.064-0.306
						c0.082-0.054,2.055-1.325,6.009-1.83c0.123-0.015,0.232,0.07,0.247,0.191c0.015,0.121-0.07,0.232-0.191,0.247
						c-3.853,0.492-5.804,1.748-5.823,1.76C49.328,13.843,49.286,13.855,49.245,13.855z"/>
				</g>
			</g>
			<g>
				<defs>
					<circle id="SVGID_7_" cx="51.88" cy="22.053" r="13.258"/>
				</defs>
				<clipPath id="SVGID_8_">
					<use xlink:href="#SVGID_7_"  overflow="visible"/>
				</clipPath>
				<g clip-path="url(#SVGID_8_)">
					<path fill="#373636" d="M59.169,21.767c-0.015,0-0.03-0.001-0.045-0.005c-0.12-0.025-0.196-0.142-0.171-0.261
						c0.808-3.85,0.667-5.786,0.666-5.805c-0.009-0.122,0.081-0.228,0.203-0.238c0.125-0.009,0.228,0.081,0.238,0.203
						c0.006,0.08,0.149,2.008-0.674,5.931C59.363,21.696,59.271,21.767,59.169,21.767z"/>
				</g>
			</g>
			<g>
				<defs>
					<circle id="SVGID_9_" cx="51.88" cy="22.053" r="13.258"/>
				</defs>
				<clipPath id="SVGID_10_">
					<use xlink:href="#SVGID_9_"  overflow="visible"/>
				</clipPath>
				<g clip-path="url(#SVGID_10_)">
					<path fill="#373636" d="M53.369,23.555c-0.052,0-0.104-0.018-0.146-0.055c-3.438-3.024-5.295-4.557-5.313-4.573
						c-0.094-0.078-0.108-0.217-0.03-0.311c0.078-0.094,0.217-0.107,0.311-0.03c0.018,0.015,1.88,1.553,5.324,4.581
						c0.092,0.081,0.1,0.22,0.02,0.312C53.491,23.529,53.43,23.555,53.369,23.555z"/>
				</g>
			</g>
			<g>
				<defs>
					<circle id="SVGID_11_" cx="51.88" cy="22.053" r="13.258"/>
				</defs>
				<clipPath id="SVGID_12_">
					<use xlink:href="#SVGID_11_"  overflow="visible"/>
				</clipPath>
				<g clip-path="url(#SVGID_12_)">
					<path fill="#373636" d="M42.376,26.65c-0.115,0-0.213-0.089-0.22-0.206c-0.196-2.956,0.699-5.764,0.737-5.882
						c0.038-0.116,0.162-0.179,0.278-0.142c0.116,0.038,0.18,0.162,0.142,0.278c-0.009,0.028-0.907,2.848-0.716,5.717
						c0.008,0.122-0.084,0.227-0.206,0.235C42.385,26.65,42.381,26.65,42.376,26.65z"/>
				</g>
			</g>
			<g>
				<defs>
					<circle id="SVGID_13_" cx="51.88" cy="22.053" r="13.258"/>
				</defs>
				<clipPath id="SVGID_14_">
					<use xlink:href="#SVGID_13_"  overflow="visible"/>
				</clipPath>
				<g clip-path="url(#SVGID_14_)">
					<path fill="#373636" d="M46.764,31.024c-0.099,0-0.189-0.067-0.214-0.167c-0.03-0.118,0.042-0.238,0.16-0.268
						c0.035-0.009,3.498-0.893,5.849-1.998c0.11-0.052,0.242-0.004,0.294,0.106c0.052,0.111,0.004,0.242-0.106,0.294
						c-2.39,1.124-5.894,2.018-5.929,2.027C46.8,31.022,46.781,31.024,46.764,31.024z"/>
				</g>
			</g>
			<g>
				<defs>
					<circle id="SVGID_15_" cx="51.88" cy="22.053" r="13.258"/>
				</defs>
				<clipPath id="SVGID_16_">
					<use xlink:href="#SVGID_15_"  overflow="visible"/>
				</clipPath>
				<g clip-path="url(#SVGID_16_)">
					<path fill="#373636" d="M57.254,34.648c-0.026,0-0.053-0.005-0.079-0.015c-0.114-0.043-0.171-0.171-0.128-0.285
						c0.625-1.636,0.584-3.278,0.583-3.294c-0.003-0.122,0.092-0.224,0.214-0.228c0.002,0,0.004,0,0.007,0
						c0.119,0,0.217,0.094,0.221,0.214c0.002,0.071,0.046,1.744-0.612,3.465C57.427,34.594,57.343,34.648,57.254,34.648z"/>
				</g>
			</g>
			<g>
				<defs>
					<circle id="SVGID_17_" cx="51.88" cy="22.053" r="13.258"/>
				</defs>
				<clipPath id="SVGID_18_">
					<use xlink:href="#SVGID_17_"  overflow="visible"/>
				</clipPath>
				<g clip-path="url(#SVGID_18_)">
					<path fill="#373636" d="M52.571,35.698c-0.013,0-0.027-0.001-0.041-0.004c-2.74-0.518-5.515-2.167-5.632-2.237
						c-0.105-0.063-0.139-0.198-0.076-0.303s0.198-0.139,0.303-0.076c0.028,0.017,2.825,1.678,5.487,2.181
						c0.12,0.023,0.199,0.138,0.176,0.258C52.768,35.624,52.676,35.698,52.571,35.698z"/>
				</g>
			</g>
			<g>
				<defs>
					<circle id="SVGID_19_" cx="51.88" cy="22.053" r="13.258"/>
				</defs>
				<clipPath id="SVGID_20_">
					<use xlink:href="#SVGID_19_"  overflow="visible"/>
				</clipPath>
				<g clip-path="url(#SVGID_20_)">
					<path fill="#373636" d="M61.667,26.516c-0.085,0-0.133-0.003-0.143-0.004c-0.122-0.009-0.213-0.116-0.203-0.238
						c0.009-0.122,0.117-0.213,0.237-0.203c0.012,0,1.29,0.082,3.252-0.828c0.112-0.051,0.242-0.003,0.294,0.108
						s0.003,0.242-0.107,0.294C63.28,26.44,62.069,26.516,61.667,26.516z"/>
				</g>
			</g>
			<g>
				<defs>
					<circle id="SVGID_21_" cx="51.88" cy="22.053" r="13.258"/>
				</defs>
				<clipPath id="SVGID_22_">
					<use xlink:href="#SVGID_21_"  overflow="visible"/>
				</clipPath>
				<g clip-path="url(#SVGID_22_)">
					<path fill="#373636" d="M65.201,20.855c-0.098,0-0.187-0.066-0.214-0.165c-0.828-3.125-2.906-5.072-2.926-5.091
						c-0.089-0.083-0.095-0.222-0.012-0.312c0.083-0.09,0.223-0.095,0.312-0.012c0.089,0.083,2.193,2.055,3.054,5.302
						c0.031,0.118-0.039,0.239-0.157,0.27C65.239,20.852,65.219,20.855,65.201,20.855z"/>
				</g>
			</g>
			<g>
				<defs>
					<circle id="SVGID_23_" cx="51.88" cy="22.053" r="13.258"/>
				</defs>
				<clipPath id="SVGID_24_">
					<use xlink:href="#SVGID_23_"  overflow="visible"/>
				</clipPath>
				<g clip-path="url(#SVGID_24_)">
					<g>
						<path fill="#373636" d="M59.841,15.728c0.79-0.029,2.429-0.234,2.429-0.234c0.058-0.702,0.117-1.522,0.117-1.522v0
							c-1.703-2.211-4.087-3.868-6.839-4.659c-0.305,1.514-0.593,2.553-0.593,2.553C57.881,13.27,59.841,15.728,59.841,15.728z"/>
					</g>
					<g>
						<path fill="#373636" d="M41.057,16.489c0,0,0.245,1.609,2.024,4.213c0,0,1.78-0.878,5.027-1.902c0,0,0.322-2.253,1.199-5.208
							c0,0-1.492-1.053-4.33-1.317C44.978,12.275,42.959,13.241,41.057,16.489z"/>
					</g>
					<g>
						<path fill="#373636" d="M59.197,21.407c0,0-2.889,1.101-5.985,1.789c0,0-0.379,3.75-0.723,5.676c0,0,2.373,2.064,5.366,2.305
							c0,0,2.717-2.167,3.784-4.884C61.639,26.292,61.364,24.022,59.197,21.407z"/>
					</g>
					<g>
						<path fill="#373636" d="M42.376,26.429c0,0-0.86,0.585-2.442,1.067l-0.064,0.172c1.168,2.493,3.089,4.562,5.471,5.916
							c0.162-0.062,0.269-0.103,0.269-0.103s1.023-0.082,1.479-0.168c0,0-0.214-0.906-0.137-2.549
							C46.951,30.764,43.993,28.769,42.376,26.429z"/>
					</g>
				</g>
			</g>
		</g>
		<g>
			<path fill="#373636" d="M51.88,35.532c-7.432,0-13.479-6.046-13.479-13.479c0-7.432,6.046-13.479,13.479-13.479
				s13.479,6.046,13.479,13.479C65.359,29.485,59.312,35.532,51.88,35.532z M51.88,9.016c-7.188,0-13.037,5.848-13.037,13.037
				s5.848,13.037,13.037,13.037s13.037-5.848,13.037-13.037S59.068,9.016,51.88,9.016z"/>
		</g>
	</g>
	<g>
		<g>
			<path fill="#373636" d="M60.754,69.118c0.85,0.85,1.638,1.713,2.372,2.578c0.089-3.307-0.716-5.533-0.716-5.533
				s-2.36-0.853-5.828-0.704C57.977,66.527,59.383,67.746,60.754,69.118z"/>
			<path fill="#373636" d="M58.983,70.889c-1.954-1.954-3.978-3.619-5.937-4.943c-3.063,0.723-6.54,2.352-9.885,5.698
				c-3.365,3.365-4.993,6.863-5.71,9.939c1.322,1.951,2.981,3.967,4.926,5.912c1.393,1.393,2.822,2.631,4.238,3.713
				c3.166-0.669,6.813-2.29,10.317-5.793c3.484-3.484,5.107-7.11,5.782-10.263C61.627,73.726,60.384,72.29,58.983,70.889z"/>
			<path fill="#373636" d="M40.605,89.266c-1.359-1.359-2.57-2.753-3.632-4.134c-0.134,3.433,0.707,5.764,0.707,5.764
				s2.198,0.794,5.471,0.717C42.295,90.885,41.444,90.104,40.605,89.266z"/>
		</g>
		<g>
			<path fill="#FFFFFF" d="M55.672,72.424l-0.474,0.474c-0.742-0.704-1.401-0.908-1.446-0.922c-0.207-0.061-0.424,0.059-0.486,0.265
				c-0.062,0.207,0.056,0.426,0.263,0.49c0.035,0.01,0.532,0.173,1.114,0.722l-0.857,0.857c-0.724-0.704-1.316-0.949-1.356-0.965
				c-0.201-0.079-0.427,0.018-0.509,0.219c-0.08,0.201,0.016,0.43,0.218,0.511c0.008,0.003,0.486,0.208,1.089,0.793l-0.82,0.82
				c-0.719-0.707-1.284-0.964-1.321-0.981c-0.198-0.087-0.43,0.002-0.517,0.201c-0.088,0.198,0.001,0.43,0.198,0.519
				c0.007,0.003,0.472,0.222,1.082,0.82l-1.057,1.057l-1.061-1.061c-0.154-0.154-0.403-0.154-0.557,0
				c-0.154,0.154-0.154,0.403,0,0.557l1.061,1.061l-0.862,0.862l-1.061-1.061c-0.154-0.154-0.403-0.154-0.557,0
				c-0.154,0.154-0.154,0.403,0,0.557l1.061,1.061l-1.056,1.056c-0.594-0.604-0.813-1.067-0.819-1.081
				c-0.088-0.198-0.32-0.288-0.518-0.2c-0.199,0.087-0.29,0.319-0.202,0.519c0.016,0.038,0.273,0.603,0.981,1.321l-0.82,0.82
				c-0.579-0.598-0.786-1.073-0.793-1.089c-0.081-0.201-0.308-0.299-0.51-0.219c-0.202,0.08-0.301,0.309-0.221,0.51
				c0.015,0.04,0.261,0.632,0.965,1.356l-0.857,0.857c-0.547-0.582-0.71-1.077-0.722-1.114c-0.062-0.207-0.279-0.326-0.488-0.265
				c-0.209,0.06-0.329,0.279-0.267,0.488c0.013,0.044,0.218,0.703,0.921,1.446l-0.474,0.474c-0.154,0.154-0.154,0.403,0,0.557
				c0.154,0.154,0.403,0.154,0.557,0l0.5-0.5c0.385,0.302,0.861,0.598,1.452,0.853c0.153,0.066,0.324,0.028,0.434-0.084
				c0.034-0.034,0.063-0.075,0.084-0.123c0.087-0.2-0.006-0.431-0.205-0.518c-0.487-0.21-0.882-0.448-1.203-0.691l0.851-0.851
				c0.371,0.302,0.823,0.609,1.371,0.895c0.157,0.081,0.342,0.047,0.46-0.071c0.028-0.028,0.052-0.06,0.071-0.097
				c0.1-0.193,0.026-0.43-0.167-0.531c-0.467-0.243-0.853-0.503-1.173-0.758l0.817-0.817c0.366,0.301,0.806,0.612,1.338,0.911
				c0.158,0.089,0.35,0.057,0.47-0.065c0.025-0.025,0.047-0.054,0.065-0.086c0.106-0.19,0.039-0.43-0.151-0.536
				c-0.461-0.259-0.843-0.526-1.164-0.785l1.028-1.028l1.061,1.061c0.154,0.154,0.403,0.154,0.557,0
				c0.154-0.154,0.154-0.403,0-0.557l-1.061-1.061l0.862-0.862l1.061,1.061c0.154,0.154,0.403,0.154,0.557,0
				c0.154-0.154,0.154-0.403,0-0.557l-1.061-1.061l1.029-1.029c0.259,0.32,0.527,0.703,0.785,1.163
				c0.106,0.19,0.346,0.257,0.536,0.151c0.032-0.018,0.061-0.04,0.086-0.065c0.122-0.122,0.153-0.313,0.065-0.47
				c-0.299-0.533-0.609-0.973-0.911-1.338l0.817-0.817c0.256,0.321,0.514,0.706,0.758,1.173c0.101,0.193,0.338,0.268,0.531,0.167
				c0.037-0.02,0.069-0.043,0.097-0.071c0.119-0.119,0.153-0.304,0.071-0.46c-0.286-0.549-0.593-1-0.895-1.371l0.851-0.851
				c0.242,0.322,0.481,0.716,0.691,1.203c0.087,0.199,0.318,0.292,0.518,0.205c0.047-0.021,0.088-0.048,0.123-0.084
				c0.11-0.11,0.148-0.281,0.084-0.434c-0.255-0.591-0.551-1.067-0.853-1.452l0.5-0.5c0.154-0.154,0.154-0.403,0-0.557
				C56.075,72.271,55.826,72.271,55.672,72.424z"/>
		</g>
	</g>
	<g>
		<path fill="#373636" d="M80.751,48.792v-3.155c-3.011-0.116-4.747-1.762-6.424-3.361c-0.963-0.918-1.886-1.789-3.018-2.357
			c-2.194,2.329-3.564,5.44-3.649,8.873L80.751,48.792L80.751,48.792z"/>
		<path fill="#373636" d="M80.751,52.619v-3.155H67.66c0.084,3.432,1.455,6.544,3.649,8.873c1.132-0.568,2.055-1.439,3.018-2.357
			C76.003,54.381,77.739,52.735,80.751,52.619z"/>
		<path fill="#373636" d="M87.846,42.277c-1.677,1.598-3.413,3.244-6.424,3.361v3.155h13.091c-0.084-3.432-1.454-6.544-3.649-8.873
			C89.732,40.488,88.809,41.359,87.846,42.277z"/>
		<path fill="#373636" d="M90.366,39.418c-2.337-2.234-5.476-3.631-8.944-3.716v9.264c2.741-0.114,4.308-1.6,5.96-3.175
			C88.292,40.924,89.226,40.036,90.366,39.418z"/>
		<path fill="#373636" d="M81.422,49.464v3.155c3.011,0.116,4.747,1.762,6.424,3.361c0.963,0.918,1.886,1.789,3.018,2.357
			c2.194-2.329,3.564-5.44,3.649-8.873L81.422,49.464L81.422,49.464z"/>
		<path fill="#373636" d="M87.383,56.465c-1.652-1.575-3.219-3.061-5.96-3.175v9.264c3.467-0.085,6.607-1.483,8.944-3.716
			C89.226,58.22,88.292,57.332,87.383,56.465z"/>
		<path fill="#373636" d="M80.751,44.966v-9.264c-3.467,0.085-6.607,1.483-8.944,3.716c1.14,0.618,2.074,1.506,2.983,2.373
			C76.442,43.365,78.009,44.852,80.751,44.966z"/>
		<path fill="#373636" d="M80.751,53.291c-2.741,0.114-4.308,1.6-5.96,3.175c-0.909,0.867-1.843,1.755-2.983,2.373
			c2.337,2.234,5.476,3.631,8.944,3.716V53.291z"/>
	</g>
</g>
</svg>
